%TF.GenerationSoftware,KiCad,Pcbnew,8.0.5*%
%TF.CreationDate,2024-10-27T20:41:26+01:00*%
%TF.ProjectId,Fragrance,46726167-7261-46e6-9365-2e6b69636164,rev?*%
%TF.SameCoordinates,Original*%
%TF.FileFunction,Copper,L1,Top*%
%TF.FilePolarity,Positive*%
%FSLAX46Y46*%
G04 Gerber Fmt 4.6, Leading zero omitted, Abs format (unit mm)*
G04 Created by KiCad (PCBNEW 8.0.5) date 2024-10-27 20:41:26*
%MOMM*%
%LPD*%
G01*
G04 APERTURE LIST*
G04 Aperture macros list*
%AMRoundRect*
0 Rectangle with rounded corners*
0 $1 Rounding radius*
0 $2 $3 $4 $5 $6 $7 $8 $9 X,Y pos of 4 corners*
0 Add a 4 corners polygon primitive as box body*
4,1,4,$2,$3,$4,$5,$6,$7,$8,$9,$2,$3,0*
0 Add four circle primitives for the rounded corners*
1,1,$1+$1,$2,$3*
1,1,$1+$1,$4,$5*
1,1,$1+$1,$6,$7*
1,1,$1+$1,$8,$9*
0 Add four rect primitives between the rounded corners*
20,1,$1+$1,$2,$3,$4,$5,0*
20,1,$1+$1,$4,$5,$6,$7,0*
20,1,$1+$1,$6,$7,$8,$9,0*
20,1,$1+$1,$8,$9,$2,$3,0*%
%AMFreePoly0*
4,1,19,0.500000,-0.750000,0.000000,-0.750000,0.000000,-0.744911,-0.071157,-0.744911,-0.207708,-0.704816,-0.327430,-0.627875,-0.420627,-0.520320,-0.479746,-0.390866,-0.500000,-0.250000,-0.500000,0.250000,-0.479746,0.390866,-0.420627,0.520320,-0.327430,0.627875,-0.207708,0.704816,-0.071157,0.744911,0.000000,0.744911,0.000000,0.750000,0.500000,0.750000,0.500000,-0.750000,0.500000,-0.750000,
$1*%
%AMFreePoly1*
4,1,19,0.000000,0.744911,0.071157,0.744911,0.207708,0.704816,0.327430,0.627875,0.420627,0.520320,0.479746,0.390866,0.500000,0.250000,0.500000,-0.250000,0.479746,-0.390866,0.420627,-0.520320,0.327430,-0.627875,0.207708,-0.704816,0.071157,-0.744911,0.000000,-0.744911,0.000000,-0.750000,-0.500000,-0.750000,-0.500000,0.750000,0.000000,0.750000,0.000000,0.744911,0.000000,0.744911,
$1*%
%AMFreePoly2*
4,1,19,0.550000,-0.750000,0.000000,-0.750000,0.000000,-0.744911,-0.071157,-0.744911,-0.207708,-0.704816,-0.327430,-0.627875,-0.420627,-0.520320,-0.479746,-0.390866,-0.500000,-0.250000,-0.500000,0.250000,-0.479746,0.390866,-0.420627,0.520320,-0.327430,0.627875,-0.207708,0.704816,-0.071157,0.744911,0.000000,0.744911,0.000000,0.750000,0.550000,0.750000,0.550000,-0.750000,0.550000,-0.750000,
$1*%
%AMFreePoly3*
4,1,19,0.000000,0.744911,0.071157,0.744911,0.207708,0.704816,0.327430,0.627875,0.420627,0.520320,0.479746,0.390866,0.500000,0.250000,0.500000,-0.250000,0.479746,-0.390866,0.420627,-0.520320,0.327430,-0.627875,0.207708,-0.704816,0.071157,-0.744911,0.000000,-0.744911,0.000000,-0.750000,-0.550000,-0.750000,-0.550000,0.750000,0.000000,0.750000,0.000000,0.744911,0.000000,0.744911,
$1*%
G04 Aperture macros list end*
%TA.AperFunction,Conductor*%
%ADD10C,0.500000*%
%TD*%
%TA.AperFunction,Conductor*%
%ADD11C,1.000000*%
%TD*%
%TA.AperFunction,Conductor*%
%ADD12C,0.630000*%
%TD*%
%ADD13C,0.250000*%
%TA.AperFunction,NonConductor*%
%ADD14C,0.250000*%
%TD*%
%TA.AperFunction,Conductor*%
%ADD15C,0.750000*%
%TD*%
%TA.AperFunction,Conductor*%
%ADD16C,2.000000*%
%TD*%
%TA.AperFunction,Conductor*%
%ADD17C,1.500000*%
%TD*%
%TA.AperFunction,Conductor*%
%ADD18C,0.200000*%
%TD*%
%TA.AperFunction,Conductor*%
%ADD19C,0.350000*%
%TD*%
%TA.AperFunction,Conductor*%
%ADD20C,1.250000*%
%TD*%
%TA.AperFunction,Conductor*%
%ADD21C,1.240000*%
%TD*%
%TA.AperFunction,Conductor*%
%ADD22C,1.150000*%
%TD*%
%TA.AperFunction,Conductor*%
%ADD23C,0.400000*%
%TD*%
%TA.AperFunction,Conductor*%
%ADD24C,0.300000*%
%TD*%
%TA.AperFunction,EtchedComponent*%
%ADD25C,0.000000*%
%TD*%
%TA.AperFunction,ComponentPad*%
%ADD26R,2.000000X2.000000*%
%TD*%
%TA.AperFunction,SMDPad,CuDef*%
%ADD27RoundRect,0.250000X-0.262500X-0.450000X0.262500X-0.450000X0.262500X0.450000X-0.262500X0.450000X0*%
%TD*%
%TA.AperFunction,SMDPad,CuDef*%
%ADD28RoundRect,0.250000X0.550000X-1.137500X0.550000X1.137500X-0.550000X1.137500X-0.550000X-1.137500X0*%
%TD*%
%TA.AperFunction,SMDPad,CuDef*%
%ADD29RoundRect,0.250000X0.412500X0.650000X-0.412500X0.650000X-0.412500X-0.650000X0.412500X-0.650000X0*%
%TD*%
%TA.AperFunction,SMDPad,CuDef*%
%ADD30FreePoly0,0.000000*%
%TD*%
%TA.AperFunction,SMDPad,CuDef*%
%ADD31FreePoly1,0.000000*%
%TD*%
%TA.AperFunction,ComponentPad*%
%ADD32R,1.700000X1.700000*%
%TD*%
%TA.AperFunction,ComponentPad*%
%ADD33O,1.700000X1.700000*%
%TD*%
%TA.AperFunction,SMDPad,CuDef*%
%ADD34FreePoly0,180.000000*%
%TD*%
%TA.AperFunction,SMDPad,CuDef*%
%ADD35FreePoly1,180.000000*%
%TD*%
%TA.AperFunction,SMDPad,CuDef*%
%ADD36RoundRect,0.250000X0.262500X0.450000X-0.262500X0.450000X-0.262500X-0.450000X0.262500X-0.450000X0*%
%TD*%
%TA.AperFunction,ComponentPad*%
%ADD37C,2.000000*%
%TD*%
%TA.AperFunction,SMDPad,CuDef*%
%ADD38RoundRect,0.162500X0.837500X0.162500X-0.837500X0.162500X-0.837500X-0.162500X0.837500X-0.162500X0*%
%TD*%
%TA.AperFunction,SMDPad,CuDef*%
%ADD39RoundRect,0.250000X-0.350000X-0.450000X0.350000X-0.450000X0.350000X0.450000X-0.350000X0.450000X0*%
%TD*%
%TA.AperFunction,SMDPad,CuDef*%
%ADD40RoundRect,0.250000X0.400000X0.450000X-0.400000X0.450000X-0.400000X-0.450000X0.400000X-0.450000X0*%
%TD*%
%TA.AperFunction,SMDPad,CuDef*%
%ADD41RoundRect,0.250000X0.337500X0.475000X-0.337500X0.475000X-0.337500X-0.475000X0.337500X-0.475000X0*%
%TD*%
%TA.AperFunction,SMDPad,CuDef*%
%ADD42RoundRect,0.250000X-0.700000X0.362500X-0.700000X-0.362500X0.700000X-0.362500X0.700000X0.362500X0*%
%TD*%
%TA.AperFunction,SMDPad,CuDef*%
%ADD43R,0.400000X1.350000*%
%TD*%
%TA.AperFunction,ComponentPad*%
%ADD44O,1.200000X1.900000*%
%TD*%
%TA.AperFunction,SMDPad,CuDef*%
%ADD45R,1.200000X1.900000*%
%TD*%
%TA.AperFunction,ComponentPad*%
%ADD46C,1.450000*%
%TD*%
%TA.AperFunction,SMDPad,CuDef*%
%ADD47R,1.500000X1.900000*%
%TD*%
%TA.AperFunction,SMDPad,CuDef*%
%ADD48RoundRect,0.250000X-0.412500X-0.650000X0.412500X-0.650000X0.412500X0.650000X-0.412500X0.650000X0*%
%TD*%
%TA.AperFunction,SMDPad,CuDef*%
%ADD49RoundRect,0.150000X-0.587500X-0.150000X0.587500X-0.150000X0.587500X0.150000X-0.587500X0.150000X0*%
%TD*%
%TA.AperFunction,SMDPad,CuDef*%
%ADD50RoundRect,0.250000X1.137500X0.550000X-1.137500X0.550000X-1.137500X-0.550000X1.137500X-0.550000X0*%
%TD*%
%TA.AperFunction,SMDPad,CuDef*%
%ADD51RoundRect,0.250000X0.450000X-0.262500X0.450000X0.262500X-0.450000X0.262500X-0.450000X-0.262500X0*%
%TD*%
%TA.AperFunction,SMDPad,CuDef*%
%ADD52RoundRect,0.250000X0.325000X0.650000X-0.325000X0.650000X-0.325000X-0.650000X0.325000X-0.650000X0*%
%TD*%
%TA.AperFunction,SMDPad,CuDef*%
%ADD53RoundRect,0.250000X0.350000X0.450000X-0.350000X0.450000X-0.350000X-0.450000X0.350000X-0.450000X0*%
%TD*%
%TA.AperFunction,SMDPad,CuDef*%
%ADD54RoundRect,0.150000X-0.150000X-0.200000X0.150000X-0.200000X0.150000X0.200000X-0.150000X0.200000X0*%
%TD*%
%TA.AperFunction,SMDPad,CuDef*%
%ADD55FreePoly2,180.000000*%
%TD*%
%TA.AperFunction,SMDPad,CuDef*%
%ADD56R,1.000000X1.500000*%
%TD*%
%TA.AperFunction,SMDPad,CuDef*%
%ADD57FreePoly3,180.000000*%
%TD*%
%TA.AperFunction,ComponentPad*%
%ADD58RoundRect,0.250000X1.050000X0.550000X-1.050000X0.550000X-1.050000X-0.550000X1.050000X-0.550000X0*%
%TD*%
%TA.AperFunction,ComponentPad*%
%ADD59O,2.600000X1.600000*%
%TD*%
%TA.AperFunction,SMDPad,CuDef*%
%ADD60RoundRect,0.250000X-0.650000X0.412500X-0.650000X-0.412500X0.650000X-0.412500X0.650000X0.412500X0*%
%TD*%
%TA.AperFunction,ViaPad*%
%ADD61C,0.600000*%
%TD*%
%TA.AperFunction,ViaPad*%
%ADD62C,1.000000*%
%TD*%
G04 APERTURE END LIST*
D10*
%TO.N,Net-(J12-Pin_1)*%
X107100000Y-122000000D02*
X104496800Y-123226000D01*
X107650000Y-120300000D02*
X107100000Y-122000000D01*
D11*
%TO.N,GND*%
X105700000Y-164700000D02*
X102031800Y-168046400D01*
X107000000Y-162200000D02*
X105700000Y-164700000D01*
D10*
%TO.N,Net-(J8-Pin_1)*%
X99900000Y-136000000D02*
X95800000Y-136000000D01*
X99900000Y-136000000D02*
X100800000Y-136000000D01*
%TO.N,SW1*%
X92600000Y-137100000D02*
X93700000Y-137900000D01*
X98552000Y-139827000D02*
X101300000Y-141100000D01*
%TO.N,Net-(J9-Pin_1)*%
X103300000Y-140900000D02*
X102500000Y-138600000D01*
X106045000Y-140233400D02*
X103400000Y-141000000D01*
%TO.N,Net-(J8-Pin_1)*%
X104139996Y-137795025D02*
X95500000Y-136100000D01*
D12*
%TO.N,GND*%
X110320000Y-159750000D02*
G75*
G02*
X105680000Y-159750000I-2320000J0D01*
G01*
X105680000Y-159750000D02*
G75*
G02*
X110320000Y-159750000I2320000J0D01*
G01*
D13*
D14*
X67921615Y-177284023D02*
X67921615Y-178295928D01*
X67921615Y-178295928D02*
X67993044Y-178414976D01*
X67993044Y-178414976D02*
X68064473Y-178474500D01*
X68064473Y-178474500D02*
X68207330Y-178534023D01*
X68207330Y-178534023D02*
X68493044Y-178534023D01*
X68493044Y-178534023D02*
X68635901Y-178474500D01*
X68635901Y-178474500D02*
X68707330Y-178414976D01*
X68707330Y-178414976D02*
X68778758Y-178295928D01*
X68778758Y-178295928D02*
X68778758Y-177284023D01*
X69421616Y-178474500D02*
X69635902Y-178534023D01*
X69635902Y-178534023D02*
X69993044Y-178534023D01*
X69993044Y-178534023D02*
X70135902Y-178474500D01*
X70135902Y-178474500D02*
X70207330Y-178414976D01*
X70207330Y-178414976D02*
X70278759Y-178295928D01*
X70278759Y-178295928D02*
X70278759Y-178176880D01*
X70278759Y-178176880D02*
X70207330Y-178057833D01*
X70207330Y-178057833D02*
X70135902Y-177998309D01*
X70135902Y-177998309D02*
X69993044Y-177938785D01*
X69993044Y-177938785D02*
X69707330Y-177879261D01*
X69707330Y-177879261D02*
X69564473Y-177819738D01*
X69564473Y-177819738D02*
X69493044Y-177760214D01*
X69493044Y-177760214D02*
X69421616Y-177641166D01*
X69421616Y-177641166D02*
X69421616Y-177522119D01*
X69421616Y-177522119D02*
X69493044Y-177403071D01*
X69493044Y-177403071D02*
X69564473Y-177343547D01*
X69564473Y-177343547D02*
X69707330Y-177284023D01*
X69707330Y-177284023D02*
X70064473Y-177284023D01*
X70064473Y-177284023D02*
X70278759Y-177343547D01*
X71421615Y-177879261D02*
X71635901Y-177938785D01*
X71635901Y-177938785D02*
X71707330Y-177998309D01*
X71707330Y-177998309D02*
X71778758Y-178117357D01*
X71778758Y-178117357D02*
X71778758Y-178295928D01*
X71778758Y-178295928D02*
X71707330Y-178414976D01*
X71707330Y-178414976D02*
X71635901Y-178474500D01*
X71635901Y-178474500D02*
X71493044Y-178534023D01*
X71493044Y-178534023D02*
X70921615Y-178534023D01*
X70921615Y-178534023D02*
X70921615Y-177284023D01*
X70921615Y-177284023D02*
X71421615Y-177284023D01*
X71421615Y-177284023D02*
X71564473Y-177343547D01*
X71564473Y-177343547D02*
X71635901Y-177403071D01*
X71635901Y-177403071D02*
X71707330Y-177522119D01*
X71707330Y-177522119D02*
X71707330Y-177641166D01*
X71707330Y-177641166D02*
X71635901Y-177760214D01*
X71635901Y-177760214D02*
X71564473Y-177819738D01*
X71564473Y-177819738D02*
X71421615Y-177879261D01*
X71421615Y-177879261D02*
X70921615Y-177879261D01*
D10*
%TO.N,SW3*%
X90424000Y-118313200D02*
X92300000Y-117400000D01*
X90424000Y-118313200D02*
X87071200Y-118313200D01*
D11*
%TO.N,GND*%
X63652400Y-171450000D02*
X68326000Y-169926000D01*
D10*
%TO.N,OLED_RESET*%
X89027000Y-119634000D02*
X91287600Y-119634000D01*
D15*
%TO.N,OLED_CS*%
X90373200Y-123799600D02*
X94030800Y-123799600D01*
D11*
%TO.N,Net-(D1-A)*%
X70739000Y-164973000D02*
X72771000Y-163703000D01*
D10*
%TO.N,SW1*%
X95250000Y-139827000D02*
X98552000Y-139827000D01*
D16*
%TO.N,GND*%
X86741000Y-174244000D02*
X91499928Y-165999960D01*
D10*
%TO.N,BOOST_ADC*%
X89500000Y-161250000D02*
X89500000Y-159000000D01*
%TO.N,Net-(J13-Pin_1)*%
X97900000Y-118100000D02*
X98500000Y-120600000D01*
D17*
%TO.N,GND*%
X102235000Y-135509000D02*
X101346000Y-133172200D01*
D18*
X63100000Y-159600000D02*
X63800000Y-160100000D01*
X63700000Y-161100000D01*
X63300000Y-161400000D01*
X61700000Y-161400000D01*
X60500000Y-162200000D01*
X60500000Y-163400000D01*
X62300000Y-164400000D01*
X64400000Y-164500000D01*
X64900000Y-164800000D01*
X64900000Y-166600000D01*
X61800000Y-166600000D01*
X61800000Y-171300000D01*
X59700000Y-171000000D01*
X59700000Y-169500000D01*
X59100000Y-169400000D01*
X52500000Y-164900000D01*
X52500000Y-163600000D01*
X53900000Y-163400000D01*
X57400000Y-161100000D01*
X58600000Y-160300000D01*
X60200000Y-160100000D01*
X61900000Y-160000000D01*
X62600000Y-159100000D01*
X63100000Y-159600000D01*
%TA.AperFunction,Conductor*%
G36*
X63100000Y-159600000D02*
G01*
X63800000Y-160100000D01*
X63700000Y-161100000D01*
X63300000Y-161400000D01*
X61700000Y-161400000D01*
X60500000Y-162200000D01*
X60500000Y-163400000D01*
X62300000Y-164400000D01*
X64400000Y-164500000D01*
X64900000Y-164800000D01*
X64900000Y-166600000D01*
X61800000Y-166600000D01*
X61800000Y-171300000D01*
X59700000Y-171000000D01*
X59700000Y-169500000D01*
X59100000Y-169400000D01*
X52500000Y-164900000D01*
X52500000Y-163600000D01*
X53900000Y-163400000D01*
X57400000Y-161100000D01*
X58600000Y-160300000D01*
X60200000Y-160100000D01*
X61900000Y-160000000D01*
X62600000Y-159100000D01*
X63100000Y-159600000D01*
G37*
%TD.AperFunction*%
D10*
%TO.N,OLED_RESET*%
X84963000Y-119634000D02*
X89027000Y-119634000D01*
D11*
%TO.N,GND*%
X95500000Y-171500000D02*
X91313000Y-174625000D01*
D10*
%TO.N,Net-(J9-Pin_1)*%
X114427000Y-140284200D02*
X106045000Y-140233400D01*
D11*
%TO.N,SCL*%
X53289200Y-124307600D02*
X56184800Y-125577600D01*
D10*
%TO.N,BOOST_ADC*%
X76327000Y-162052000D02*
X78994000Y-167894000D01*
D11*
%TO.N,SCL*%
X45262800Y-144983200D02*
X48209200Y-156819600D01*
D10*
%TO.N,BOOST_ADC*%
X86000000Y-168000000D02*
X86000000Y-162500000D01*
D11*
%TO.N,Net-(J8-Pin_1)*%
X113919000Y-138176000D02*
X107316200Y-138262800D01*
D15*
%TO.N,+5V*%
X74574400Y-174447200D02*
X71755000Y-174500000D01*
D11*
%TO.N,GND*%
X87172800Y-176580800D02*
X87122000Y-173482000D01*
%TO.N,SDA*%
X52222400Y-149352000D02*
X44704000Y-141478000D01*
D18*
%TO.N,GND*%
X88392000Y-170688000D02*
X86741000Y-174244000D01*
X78613000Y-174117000D01*
X78613000Y-170307000D01*
X88392000Y-170688000D01*
%TA.AperFunction,Conductor*%
G36*
X88392000Y-170688000D02*
G01*
X86741000Y-174244000D01*
X78613000Y-174117000D01*
X78613000Y-170307000D01*
X88392000Y-170688000D01*
G37*
%TD.AperFunction*%
D19*
%TO.N,BOOST_DAC_1*%
X84201000Y-128397000D02*
X84201000Y-131953000D01*
D17*
%TO.N,Net-(J2-Pin_5)*%
X53721000Y-161925000D02*
X58900000Y-158700000D01*
D10*
%TO.N,Net-(J8-Pin_1)*%
X107316200Y-138262800D02*
X104139996Y-137795025D01*
D17*
%TO.N,+5V*%
X50139600Y-159385000D02*
X56426100Y-156972000D01*
D11*
%TO.N,SCL*%
X53721000Y-154914600D02*
X53746400Y-141757400D01*
%TO.N,GND*%
X75234800Y-168732200D02*
X72440800Y-169824400D01*
D10*
%TO.N,I2C_2_PWR*%
X46355000Y-136017000D02*
X47498000Y-133858000D01*
%TO.N,Net-(D1-K)*%
X77250000Y-168750000D02*
X76300000Y-165700000D01*
%TO.N,OLED_RESET*%
X66963000Y-123384000D02*
X84963000Y-119634000D01*
D17*
%TO.N,GND*%
X101346000Y-127838200D02*
X104648000Y-127762000D01*
D19*
%TO.N,OE*%
X62687200Y-151206200D02*
X63296800Y-149047200D01*
D11*
%TO.N,GND*%
X60706000Y-171958000D02*
X60731400Y-167284400D01*
%TO.N,SCL*%
X60045600Y-125272800D02*
X53746400Y-141757400D01*
%TO.N,Net-(D1-K)*%
X74472800Y-167538400D02*
X76100000Y-166090600D01*
D20*
%TO.N,Net-(JP4-C)*%
X68021200Y-163271200D02*
X66065400Y-161442400D01*
D17*
%TO.N,GND*%
X86207600Y-138709400D02*
X84531200Y-139598400D01*
D19*
%TO.N,OE*%
X63398400Y-130302000D02*
X64084200Y-126365000D01*
D17*
%TO.N,Net-(J7-Pin_1)*%
X42672000Y-138049000D02*
X45770800Y-138023600D01*
D11*
%TO.N,GND*%
X81000000Y-163500000D02*
X78232000Y-163474400D01*
%TO.N,Net-(J12-Pin_1)*%
X111252000Y-123190000D02*
X104496800Y-123226000D01*
%TO.N,Net-(J6-Pin_1)*%
X56261000Y-119888000D02*
X53253000Y-119263000D01*
%TO.N,Net-(D1-K)*%
X70713600Y-166725600D02*
X72517000Y-167538400D01*
D17*
%TO.N,GND*%
X107442000Y-135255000D02*
X113919000Y-135255000D01*
D11*
%TO.N,SDA*%
X42672000Y-140589000D02*
X39878000Y-139954000D01*
%TO.N,+3V3*%
X58293000Y-119126000D02*
X58293000Y-122682000D01*
D19*
%TO.N,SW2*%
X89458800Y-130606800D02*
X87122000Y-128676400D01*
D17*
%TO.N,GND*%
X104648000Y-127762000D02*
X110998000Y-127762000D01*
D11*
%TO.N,SDA*%
X39878000Y-133350000D02*
X53212905Y-121665892D01*
%TO.N,Net-(D1-A)*%
X66395600Y-164947600D02*
X70739000Y-164973000D01*
D10*
%TO.N,GND*%
X90627200Y-156108400D02*
X90017600Y-154482800D01*
D19*
%TO.N,Net-(U1-A6{slash}IO14)*%
X69215000Y-113284000D02*
X66675000Y-113284000D01*
D15*
%TO.N,Net-(U1-A12{slash}IO13)*%
X71170800Y-129286000D02*
X66802000Y-128524000D01*
D10*
%TO.N,Net-(J9-Pin_1)*%
X115341400Y-140893800D02*
X114427000Y-140284200D01*
D21*
%TO.N,GND*%
X94996000Y-147167600D02*
X98044000Y-145542000D01*
D10*
%TO.N,Net-(J32-Pin_1)*%
X66802000Y-115697000D02*
X62991993Y-116712972D01*
D18*
%TO.N,Net-(D1-A)*%
X72771000Y-163703000D02*
X73152000Y-163449000D01*
D15*
%TO.N,Net-(C1-Pad1)*%
X83000000Y-163500000D02*
X83000000Y-161250000D01*
D10*
%TO.N,Net-(U1-A8{slash}IO15)*%
X63627000Y-118618000D02*
X66802000Y-118364000D01*
D17*
%TO.N,GND*%
X101346000Y-133172200D02*
X101346000Y-127838200D01*
D11*
%TO.N,SCL*%
X53721000Y-154914600D02*
X50165000Y-156819600D01*
D17*
%TO.N,GND*%
X108026200Y-156291200D02*
X110744000Y-156337000D01*
%TO.N,Net-(JP4-C)*%
X64200000Y-162900000D02*
X66600000Y-161900000D01*
%TO.N,GND*%
X107315000Y-142748000D02*
X113792000Y-142748000D01*
D10*
%TO.N,Net-(U1-A8{slash}IO15)*%
X61341000Y-122047000D02*
X63627000Y-118618000D01*
%TO.N,BOOST_DAC_2*%
X81250000Y-161000000D02*
X81280000Y-137058400D01*
%TO.N,BOOST_EN*%
X69240400Y-160731200D02*
X69697600Y-161442400D01*
D17*
%TO.N,+5V*%
X66929000Y-130937000D02*
X61722000Y-133756400D01*
D19*
%TO.N,BOOST_DAC_1*%
X85344000Y-127254000D02*
X84201000Y-128397000D01*
D17*
%TO.N,+5V*%
X56426100Y-156972000D02*
X56451500Y-150749000D01*
%TO.N,Net-(J7-Pin_1)*%
X46710600Y-140360400D02*
X46075600Y-138074400D01*
D11*
%TO.N,SCL*%
X61468000Y-114681000D02*
X60045600Y-120319800D01*
%TO.N,SDA*%
X39878000Y-139954000D02*
X39878000Y-133350000D01*
%TO.N,Net-(D1-K)*%
X72517000Y-167538400D02*
X74472800Y-167538400D01*
D10*
%TO.N,BOOST_ADC*%
X89789000Y-158623000D02*
X87757000Y-156464000D01*
%TO.N,+5V*%
X75412600Y-175272700D02*
X74549000Y-174332900D01*
D11*
%TO.N,SCL*%
X42672000Y-143002000D02*
X45262800Y-144983200D01*
D17*
%TO.N,+5V*%
X71755000Y-174500000D02*
X60198000Y-174498000D01*
D10*
%TO.N,SW1*%
X93700000Y-137900000D02*
X95250000Y-139827000D01*
D11*
%TO.N,Net-(D1-K)*%
X76200000Y-164200000D02*
X76200000Y-166000000D01*
D10*
%TO.N,Net-(J1-Shield)*%
X74066400Y-178460400D02*
X74015600Y-176276000D01*
D17*
%TO.N,GND*%
X114084100Y-150266400D02*
X107657900Y-150266400D01*
D11*
X94183200Y-131318000D02*
X95300800Y-134213600D01*
X59400000Y-163200000D02*
X60731400Y-167284400D01*
D17*
X98044000Y-145542000D02*
X92659200Y-139446000D01*
%TO.N,+3V3*%
X61200000Y-155586800D02*
X61200000Y-158600000D01*
X111404400Y-153670000D02*
X107492800Y-153670000D01*
D15*
%TO.N,Net-(U1-A12{slash}IO13)*%
X71145400Y-153085800D02*
X71170800Y-129286000D01*
D11*
%TO.N,GND*%
X90627200Y-156108400D02*
X93472000Y-158623000D01*
D19*
%TO.N,Net-(J1-D-)*%
X76073000Y-174750000D02*
X76073000Y-175500000D01*
X76073000Y-174750000D02*
X73710800Y-172059600D01*
D10*
%TO.N,Net-(U1-A8{slash}IO15)*%
X61341000Y-127736600D02*
X61341000Y-122047000D01*
D22*
%TO.N,Net-(JP4-C)*%
X65836800Y-159867600D02*
X66065400Y-161442400D01*
D17*
%TO.N,+5V*%
X61722000Y-148132800D02*
X61722000Y-133756400D01*
D11*
%TO.N,Net-(D1-K)*%
X65328800Y-168910000D02*
X70205600Y-166903400D01*
D17*
%TO.N,GND*%
X102870000Y-166065200D02*
X101193600Y-170027600D01*
%TO.N,Net-(J9-Pin_1)*%
X113919000Y-145796000D02*
X107317400Y-145791852D01*
%TO.N,GND*%
X102997000Y-165608000D02*
X104825800Y-156489400D01*
D15*
%TO.N,Net-(U1-A12{slash}IO13)*%
X71145400Y-153085800D02*
X70688200Y-155270200D01*
D11*
%TO.N,+5V*%
X61350000Y-133650000D02*
X60328000Y-135893600D01*
D18*
%TO.N,GND*%
X67564000Y-172720000D02*
X65786000Y-172466000D01*
D19*
%TO.N,Net-(J1-D+)*%
X76301600Y-172161200D02*
X76750000Y-174250000D01*
D11*
%TO.N,GND*%
X62204600Y-172770800D02*
X60706000Y-171958000D01*
X82375000Y-174500000D02*
X86750000Y-174500000D01*
D10*
%TO.N,Net-(J1-Shield)*%
X77825600Y-178511200D02*
X79146400Y-177190400D01*
D11*
%TO.N,+5V*%
X70358000Y-172593000D02*
X71755000Y-174500000D01*
D10*
%TO.N,Net-(J9-Pin_1)*%
X115671600Y-142036800D02*
X115417600Y-140970000D01*
%TO.N,Net-(D1-K)*%
X87500000Y-168750000D02*
X87503000Y-163830000D01*
%TO.N,SW4*%
X101250000Y-117950000D02*
X105650000Y-120400000D01*
D18*
%TO.N,GND*%
X77063600Y-156921200D02*
X80365600Y-156921200D01*
X79489000Y-163411000D01*
X77825600Y-163576000D01*
X76454000Y-160477200D01*
X72694800Y-160477200D01*
X72796400Y-153568400D01*
X77063600Y-153568400D01*
X77063600Y-156921200D01*
%TA.AperFunction,Conductor*%
G36*
X77063600Y-156921200D02*
G01*
X80365600Y-156921200D01*
X79489000Y-163411000D01*
X77825600Y-163576000D01*
X76454000Y-160477200D01*
X72694800Y-160477200D01*
X72796400Y-153568400D01*
X77063600Y-153568400D01*
X77063600Y-156921200D01*
G37*
%TD.AperFunction*%
D11*
%TO.N,SCL*%
X50165000Y-156819600D02*
X48209200Y-156819600D01*
D20*
%TO.N,BAT_V*%
X67183000Y-158673800D02*
X67183000Y-136194800D01*
D17*
%TO.N,Net-(J2-Pin_5)*%
X58900000Y-158700000D02*
X59029600Y-156819600D01*
%TO.N,GND*%
X98806000Y-171323000D02*
X101193600Y-170027600D01*
D10*
%TO.N,SW4*%
X95350000Y-114850000D02*
X99750000Y-114850000D01*
D17*
%TO.N,+5V*%
X56451500Y-150749000D02*
X61722000Y-148132800D01*
D10*
%TO.N,GND*%
X71221600Y-160274000D02*
X72948800Y-159156400D01*
%TO.N,Net-(J13-Pin_1)*%
X111912400Y-125476000D02*
X113690400Y-127457200D01*
D11*
%TO.N,Net-(J6-Pin_1)*%
X56769000Y-122555000D02*
X56134000Y-120015000D01*
D10*
%TO.N,SW4*%
X89916000Y-115824000D02*
X92650000Y-114850000D01*
%TO.N,Net-(J1-Shield)*%
X79146400Y-177190400D02*
X79298792Y-176021999D01*
D11*
%TO.N,Net-(D1-A)*%
X74350000Y-164050000D02*
X73250000Y-165550000D01*
D19*
%TO.N,BOOST_DAC_1*%
X90805000Y-126111000D02*
X88392000Y-127254000D01*
D11*
%TO.N,Net-(JP4-C)*%
X69265800Y-163449000D02*
X67767200Y-163449000D01*
D10*
%TO.N,Net-(J13-Pin_1)*%
X102223900Y-125276000D02*
X98550000Y-120700000D01*
D19*
%TO.N,BOOST_DAC_1*%
X86741000Y-133731000D02*
X84201000Y-131953000D01*
D17*
%TO.N,+3V3*%
X48564800Y-140258800D02*
X48412400Y-137464800D01*
D11*
%TO.N,GND*%
X78333600Y-174345600D02*
X82375000Y-174359300D01*
D10*
%TO.N,Net-(J1-Shield)*%
X84582000Y-178460400D02*
X80670392Y-178409599D01*
D18*
%TO.N,GND*%
X95500000Y-171500000D02*
X97200000Y-172000000D01*
D10*
%TO.N,BOOST_ADC*%
X86000000Y-162500000D02*
X89500000Y-162500000D01*
D23*
%TO.N,SW4*%
X92650000Y-114850000D02*
X95350000Y-114850000D01*
D19*
%TO.N,BOOST_ADC*%
X74750000Y-161500000D02*
X73250000Y-161500000D01*
D11*
%TO.N,GND*%
X78181200Y-169824400D02*
X88747600Y-169824400D01*
X62204600Y-172770800D02*
X67005200Y-172872400D01*
D10*
%TO.N,BOOST_DAC_2*%
X81280000Y-137058400D02*
X87250000Y-136250000D01*
D15*
%TO.N,OLED_CS*%
X86750000Y-126000000D02*
X90373200Y-123799600D01*
D18*
%TO.N,GND*%
X86750000Y-174500000D02*
X84562500Y-174500000D01*
D16*
X91313000Y-174625000D02*
X87122000Y-173101000D01*
D20*
%TO.N,+3V3*%
X92354400Y-143967200D02*
X91744800Y-146812000D01*
D10*
%TO.N,GND*%
X78079600Y-175514000D02*
X78079600Y-174264000D01*
D11*
%TO.N,SCL*%
X56184800Y-125577600D02*
X58572400Y-128854200D01*
D10*
%TO.N,Net-(U1-IO4{slash}A5)*%
X85725000Y-123317000D02*
X78308200Y-135940800D01*
D17*
%TO.N,GND*%
X99949000Y-162941000D02*
X101346000Y-151892000D01*
D11*
%TO.N,SCL*%
X60045600Y-120319800D02*
X60045600Y-125272800D01*
X66675000Y-110871000D02*
X61468000Y-114681000D01*
D10*
%TO.N,BOOST_ADC*%
X88087200Y-154127200D02*
X87397600Y-155996200D01*
D18*
%TO.N,Net-(U1-IO4{slash}A5)*%
X85725000Y-123317000D02*
X87122000Y-123444000D01*
D10*
%TO.N,Net-(J1-Shield)*%
X85852000Y-176682400D02*
X84582000Y-178460400D01*
%TO.N,BOOST_ADC*%
X89500000Y-161250000D02*
X89500000Y-163750000D01*
D24*
%TO.N,Net-(U1-A6{slash}IO14)*%
X65405000Y-109474000D02*
X69342000Y-109474000D01*
D18*
%TO.N,GND*%
X97200000Y-172000000D02*
X95500000Y-171500000D01*
D11*
X79654400Y-169926000D02*
X68326000Y-169926000D01*
D17*
%TO.N,+3V3*%
X50419000Y-140462000D02*
X48564800Y-140258800D01*
D19*
%TO.N,OE*%
X64135000Y-126365000D02*
X66802000Y-125984000D01*
D11*
%TO.N,GND*%
X82156300Y-170472100D02*
X87617300Y-170599100D01*
D17*
%TO.N,+5V*%
X50215800Y-159385000D02*
X48107600Y-160070800D01*
D23*
%TO.N,SW3*%
X92300000Y-117400000D02*
X95900000Y-117400000D01*
D20*
%TO.N,+3V3*%
X64439800Y-158661100D02*
X64439800Y-155790900D01*
D10*
%TO.N,Net-(U1-IO4{slash}A5)*%
X78308200Y-140843000D02*
X78308200Y-135940800D01*
D17*
%TO.N,+5V*%
X48107600Y-160070800D02*
X48209200Y-165404800D01*
D10*
%TO.N,Net-(J13-Pin_1)*%
X102323900Y-125476000D02*
X111912400Y-125476000D01*
D17*
%TO.N,GND*%
X94894400Y-164000000D02*
X99949000Y-162941000D01*
X104825800Y-156489400D02*
X108026200Y-156291200D01*
D19*
%TO.N,BOOST_DAC_1*%
X88392000Y-127254000D02*
X85344000Y-127254000D01*
D10*
%TO.N,SW3*%
X97800000Y-116000000D02*
X95900000Y-117400000D01*
D17*
%TO.N,GND*%
X107442000Y-135255000D02*
X102235000Y-135509000D01*
D10*
%TO.N,I2C_1_PWR*%
X56388000Y-117983000D02*
X56133982Y-115443002D01*
D19*
%TO.N,SW2*%
X89458800Y-130606800D02*
X89674700Y-131406900D01*
D11*
%TO.N,GND*%
X80250000Y-166000000D02*
X81000000Y-163500000D01*
D19*
%TO.N,Net-(U1-A6{slash}IO14)*%
X58293000Y-115443000D02*
X65405000Y-109474000D01*
D10*
%TO.N,Net-(Q3-G)*%
X60858400Y-151231600D02*
X59232800Y-154432000D01*
D17*
%TO.N,GND*%
X98806000Y-171323000D02*
X91313000Y-174625000D01*
D20*
%TO.N,+3V3*%
X64439800Y-155829000D02*
X63017400Y-153492200D01*
D11*
%TO.N,+5V*%
X67462400Y-175844200D02*
X67462400Y-174853600D01*
%TO.N,+3V3*%
X58293000Y-124968000D02*
X58293000Y-122682000D01*
D10*
%TO.N,BOOST_EN*%
X68834000Y-156210000D02*
X69215800Y-157742000D01*
D19*
%TO.N,SW2*%
X89674700Y-131406900D02*
X93700000Y-135600000D01*
D10*
%TO.N,Net-(D1-K)*%
X77250000Y-168750000D02*
X87500000Y-168750000D01*
D11*
%TO.N,Net-(J13-Pin_1)*%
X113919000Y-130683000D02*
X107317401Y-130729665D01*
D10*
%TO.N,Net-(U1-IO4{slash}A5)*%
X87680800Y-159029400D02*
X83159600Y-157200600D01*
D11*
%TO.N,GND*%
X50215800Y-164515800D02*
X60706000Y-171958000D01*
D19*
%TO.N,Net-(J1-D+)*%
X76750000Y-175500000D02*
X76750000Y-174250000D01*
D17*
%TO.N,+5V*%
X48209200Y-165404800D02*
X60198000Y-174498000D01*
D18*
%TO.N,GND*%
X73456800Y-160426400D02*
X70434200Y-160401000D01*
X70434200Y-157200600D01*
X72771000Y-157200600D01*
X73456800Y-160426400D01*
%TA.AperFunction,Conductor*%
G36*
X73456800Y-160426400D02*
G01*
X70434200Y-160401000D01*
X70434200Y-157200600D01*
X72771000Y-157200600D01*
X73456800Y-160426400D01*
G37*
%TD.AperFunction*%
D17*
%TO.N,Net-(J2-Pin_5)*%
X50266600Y-161925000D02*
X53721000Y-161925000D01*
D11*
%TO.N,Net-(J15-Pin_1)*%
X87071200Y-120954800D02*
X90424000Y-121462800D01*
D10*
%TO.N,Net-(U1-A8{slash}IO15)*%
X49860200Y-133781800D02*
X53898800Y-137668000D01*
D11*
%TO.N,Net-(D1-A)*%
X74350000Y-164050000D02*
X73139300Y-163655400D01*
D10*
%TO.N,Net-(U1-A8{slash}IO15)*%
X61341000Y-127736600D02*
X56718200Y-138404600D01*
%TO.N,SW4*%
X87122000Y-115824000D02*
X89916000Y-115824000D01*
D17*
%TO.N,GND*%
X101346000Y-151892000D02*
X107657900Y-150266400D01*
D15*
%TO.N,Net-(C1-Pad1)*%
X83000000Y-161250000D02*
X87750000Y-161250000D01*
%TO.N,GND*%
X72542400Y-162509200D02*
X71290000Y-162500000D01*
D17*
X101346000Y-151892000D02*
X103251000Y-143129000D01*
D11*
%TO.N,SDA*%
X52222400Y-153212800D02*
X52222400Y-149352000D01*
D10*
%TO.N,Net-(J13-Pin_1)*%
X113690400Y-127457200D02*
X113919000Y-130683000D01*
D17*
%TO.N,GND*%
X91313000Y-174625000D02*
X94894400Y-164000000D01*
D10*
%TO.N,BOOST_ADC*%
X79121000Y-168021000D02*
X86000000Y-168000000D01*
%TO.N,Net-(U1-IO4{slash}A5)*%
X83159600Y-157200600D02*
X83134200Y-141732000D01*
%TO.N,Net-(J1-Shield)*%
X79705200Y-178714400D02*
X77724000Y-178765200D01*
D11*
%TO.N,GND*%
X67259200Y-172212000D02*
X67259200Y-170332400D01*
D17*
%TO.N,+3V3*%
X91236800Y-143154400D02*
X87122000Y-143764000D01*
%TO.N,GND*%
X103251000Y-143129000D02*
X107315000Y-142748000D01*
D19*
%TO.N,OE*%
X63296800Y-149047200D02*
X63347600Y-135585200D01*
D17*
%TO.N,GND*%
X92100400Y-139039600D02*
X86563200Y-138633200D01*
D10*
%TO.N,SW1*%
X87731600Y-131318000D02*
X92600000Y-137100000D01*
%TO.N,Net-(J9-Pin_1)*%
X113919000Y-145796000D02*
X115671600Y-144272000D01*
%TO.N,SW4*%
X99750000Y-114850000D02*
X101250000Y-117950000D01*
%TO.N,Net-(J1-Shield)*%
X77724000Y-178765200D02*
X74015600Y-178765200D01*
%TO.N,OLED_RESET*%
X91287600Y-119634000D02*
X94234000Y-121310400D01*
D11*
%TO.N,+5V*%
X69189600Y-175895000D02*
X71297800Y-174625000D01*
%TO.N,GND*%
X95300800Y-134213600D02*
X101193600Y-134213600D01*
D15*
%TO.N,Net-(C1-Pad1)*%
X83360800Y-166221000D02*
X83110800Y-163471000D01*
D17*
%TO.N,+3V3*%
X61264800Y-155244800D02*
X64693800Y-151765000D01*
D11*
%TO.N,SDA*%
X44704000Y-141478000D02*
X42672000Y-140589000D01*
D19*
%TO.N,Net-(U1-A6{slash}IO14)*%
X69342000Y-109474000D02*
X70612000Y-111252000D01*
%TO.N,BOOST_ADC*%
X74750000Y-161500000D02*
X76327000Y-161925000D01*
%TO.N,Net-(U1-A6{slash}IO14)*%
X70612000Y-111252000D02*
X69214983Y-113283988D01*
D10*
%TO.N,BOOST_EN*%
X69241200Y-157742000D02*
X69240400Y-160731200D01*
D11*
%TO.N,SDA*%
X50241200Y-154203400D02*
X52222400Y-153212800D01*
D10*
%TO.N,Net-(J33-Pin_1)*%
X62992000Y-124460000D02*
X64135000Y-121666000D01*
X64135000Y-121666000D02*
X66802000Y-120904000D01*
D17*
%TO.N,GND*%
X91499928Y-165999960D02*
X98044000Y-145542000D01*
D10*
%TO.N,Net-(J9-Pin_1)*%
X115671600Y-144272000D02*
X115671600Y-142036800D01*
D15*
%TO.N,GND*%
X71289600Y-162494000D02*
X71221600Y-160274000D01*
D11*
%TO.N,Net-(D1-K)*%
X63626600Y-168930000D02*
X65328800Y-168910000D01*
D25*
%TA.AperFunction,EtchedComponent*%
%TD*%
%TO.C,JP5*%
G36*
X86671200Y-176533200D02*
G01*
X86171200Y-176533200D01*
X86171200Y-176133200D01*
X86671200Y-176133200D01*
X86671200Y-176533200D01*
G37*
%TD.AperFunction*%
%TA.AperFunction,EtchedComponent*%
%TO.C,JP5*%
G36*
X86671200Y-177333200D02*
G01*
X86171200Y-177333200D01*
X86171200Y-176933200D01*
X86671200Y-176933200D01*
X86671200Y-177333200D01*
G37*
%TD.AperFunction*%
%TD*%
D26*
%TO.P,J9,1,Pin_1*%
%TO.N,Net-(J9-Pin_1)*%
X98500000Y-124100000D03*
%TD*%
%TO.P,J8,1,Pin_1*%
%TO.N,Net-(J8-Pin_1)*%
X98500000Y-127800000D03*
%TD*%
D27*
%TO.P,R21,1*%
%TO.N,BOOST_DAC_2*%
X81175000Y-161250000D03*
%TO.P,R21,2*%
%TO.N,Net-(C1-Pad1)*%
X83000000Y-161250000D03*
%TD*%
D28*
%TO.P,C5,1*%
%TO.N,+3V3*%
X92303600Y-143611600D03*
%TO.P,C5,2*%
%TO.N,GND*%
X92303600Y-139486600D03*
%TD*%
D29*
%TO.P,C3,1*%
%TO.N,Net-(C1-Pad1)*%
X83401300Y-165963600D03*
%TO.P,C3,2*%
%TO.N,GND*%
X80276300Y-165963600D03*
%TD*%
D30*
%TO.P,JP3,1,A*%
%TO.N,Net-(J2-Pin_5)*%
X59550000Y-158600000D03*
D31*
%TO.P,JP3,2,B*%
%TO.N,+3V3*%
X60850000Y-158600000D03*
%TD*%
D32*
%TO.P,J5,1,Pin_1*%
%TO.N,Net-(J1-D-)*%
X73761600Y-172161200D03*
D33*
%TO.P,J5,2,Pin_2*%
%TO.N,Net-(J1-D+)*%
X76301600Y-172161200D03*
%TD*%
D26*
%TO.P,TP2,1,1*%
%TO.N,+5V*%
X60700000Y-136000000D03*
%TD*%
D30*
%TO.P,JP2,1,A*%
%TO.N,Net-(J7-Pin_1)*%
X46960000Y-140335000D03*
D31*
%TO.P,JP2,2,B*%
%TO.N,+3V3*%
X48260000Y-140335000D03*
%TD*%
D34*
%TO.P,JP5,1,A*%
%TO.N,GND*%
X87071200Y-176733200D03*
D35*
%TO.P,JP5,2,B*%
%TO.N,Net-(J1-Shield)*%
X85771200Y-176733200D03*
%TD*%
D36*
%TO.P,R15,1*%
%TO.N,GND*%
X89968000Y-154087000D03*
%TO.P,R15,2*%
%TO.N,BOOST_ADC*%
X88143000Y-154087000D03*
%TD*%
D26*
%TO.P,J15,1,Pin_1*%
%TO.N,Net-(J15-Pin_1)*%
X90373200Y-121412000D03*
%TD*%
D37*
%TO.P,SW2,1,1*%
%TO.N,Net-(J8-Pin_1)*%
X107316200Y-138262800D03*
%TO.P,SW2,2,2*%
X113816200Y-138262800D03*
%TO.P,SW2,3,K*%
%TO.N,GND*%
X107316200Y-142762800D03*
%TO.P,SW2,4,A*%
X113816200Y-142762800D03*
%TD*%
D38*
%TO.P,U2,1,SW*%
%TO.N,Net-(D1-A)*%
X72999600Y-163444000D03*
%TO.P,U2,2,GND*%
%TO.N,GND*%
X72999600Y-162494000D03*
%TO.P,U2,3,FB*%
%TO.N,BOOST_ADC*%
X72999600Y-161544000D03*
%TO.P,U2,4,EN/DITH*%
%TO.N,BOOST_EN*%
X69579600Y-161544000D03*
%TO.P,U2,5,Vin*%
%TO.N,Net-(JP4-C)*%
X69579600Y-163444000D03*
%TD*%
D37*
%TO.P,SW1,1,1*%
%TO.N,Net-(J9-Pin_1)*%
X107317400Y-145791800D03*
%TO.P,SW1,2,2*%
X113817400Y-145791800D03*
%TO.P,SW1,3,K*%
%TO.N,GND*%
X107317400Y-150291800D03*
%TO.P,SW1,4,A*%
X113817400Y-150291800D03*
%TD*%
D26*
%TO.P,J13,1,Pin_1*%
%TO.N,Net-(J13-Pin_1)*%
X98500000Y-120600000D03*
%TD*%
D27*
%TO.P,R2,1*%
%TO.N,BOOST_EN*%
X68884800Y-155676600D03*
%TO.P,R2,2*%
%TO.N,Net-(U1-A12{slash}IO13)*%
X70709800Y-155676600D03*
%TD*%
D39*
%TO.P,R4,1*%
%TO.N,I2C_2_PWR*%
X47784000Y-133604000D03*
%TO.P,R4,2*%
%TO.N,Net-(U1-A8{slash}IO15)*%
X49784000Y-133604000D03*
%TD*%
D32*
%TO.P,J3,1,Pin_1*%
%TO.N,OLED_DATA*%
X94081600Y-113588800D03*
D33*
%TO.P,J3,2,Pin_2*%
%TO.N,OLED_CLK*%
X94081600Y-116128800D03*
%TO.P,J3,3,Pin_3*%
%TO.N,OLED_DC*%
X94081600Y-118668800D03*
%TO.P,J3,4,Pin_4*%
%TO.N,OLED_RESET*%
X94081600Y-121208800D03*
%TO.P,J3,5,Pin_5*%
%TO.N,OLED_CS*%
X94081600Y-123748800D03*
%TO.P,J3,6,Pin_6*%
%TO.N,unconnected-(J3-Pin_6-Pad6)*%
X94081600Y-126288800D03*
%TO.P,J3,7,Pin_7*%
%TO.N,+3V3*%
X94081600Y-128828800D03*
%TO.P,J3,8,Pin_8*%
%TO.N,GND*%
X94081600Y-131368800D03*
%TD*%
D40*
%TO.P,D2,1,K*%
%TO.N,Net-(D1-K)*%
X76250000Y-165900000D03*
%TO.P,D2,2,A*%
%TO.N,Net-(D1-A)*%
X73350000Y-165900000D03*
%TD*%
D30*
%TO.P,JP1,1,A*%
%TO.N,Net-(J6-Pin_1)*%
X56866000Y-122682000D03*
D31*
%TO.P,JP1,2,B*%
%TO.N,+3V3*%
X58166000Y-122682000D03*
%TD*%
D41*
%TO.P,C1,1*%
%TO.N,Net-(C1-Pad1)*%
X83000000Y-163500000D03*
%TO.P,C1,2*%
%TO.N,GND*%
X80925000Y-163500000D03*
%TD*%
D42*
%TO.P,L1,1,1*%
%TO.N,Net-(JP4-C)*%
X66900000Y-161637500D03*
%TO.P,L1,2,2*%
%TO.N,Net-(D1-A)*%
X66900000Y-164962500D03*
%TD*%
D27*
%TO.P,R20,1*%
%TO.N,Net-(C1-Pad1)*%
X87675000Y-161250000D03*
%TO.P,R20,2*%
%TO.N,BOOST_ADC*%
X89500000Y-161250000D03*
%TD*%
D43*
%TO.P,J1,1,VBUS*%
%TO.N,+5V*%
X75450000Y-175862000D03*
%TO.P,J1,2,D-*%
%TO.N,Net-(J1-D-)*%
X76100000Y-175862000D03*
%TO.P,J1,3,D+*%
%TO.N,Net-(J1-D+)*%
X76750000Y-175862000D03*
%TO.P,J1,4,ID*%
%TO.N,unconnected-(J1-ID-Pad4)*%
X77400000Y-175862000D03*
%TO.P,J1,5,GND*%
%TO.N,GND*%
X78050000Y-175862000D03*
D44*
%TO.P,J1,6,Shield*%
%TO.N,Net-(J1-Shield)*%
X73250000Y-178562000D03*
D45*
X73850000Y-178562000D03*
D46*
X74250000Y-175862000D03*
D47*
X75750000Y-178562000D03*
X77750000Y-178562000D03*
D46*
X79250000Y-175862000D03*
D45*
X79650000Y-178562000D03*
D44*
X80250000Y-178562000D03*
%TD*%
D48*
%TO.P,C7,1*%
%TO.N,BOOST_ADC*%
X87566100Y-156337000D03*
%TO.P,C7,2*%
%TO.N,GND*%
X90691100Y-156337000D03*
%TD*%
D36*
%TO.P,R6,1*%
%TO.N,Net-(J9-Pin_1)*%
X103312500Y-141100000D03*
%TO.P,R6,2*%
%TO.N,SW1*%
X101487500Y-141100000D03*
%TD*%
D39*
%TO.P,R3,1*%
%TO.N,I2C_1_PWR*%
X56134000Y-115443000D03*
%TO.P,R3,2*%
%TO.N,Net-(U1-A6{slash}IO14)*%
X58134000Y-115443000D03*
%TD*%
D26*
%TO.P,J12,1,Pin_1*%
%TO.N,Net-(J12-Pin_1)*%
X98171000Y-113030000D03*
%TD*%
D32*
%TO.P,J6,1,Pin_1*%
%TO.N,Net-(J6-Pin_1)*%
X53253000Y-119263000D03*
D33*
%TO.P,J6,2,Pin_2*%
%TO.N,SDA*%
X53253000Y-121803000D03*
%TO.P,J6,3,Pin_3*%
%TO.N,SCL*%
X53253000Y-124343000D03*
%TO.P,J6,4,Pin_4*%
%TO.N,GND*%
X53253000Y-126883000D03*
%TD*%
D36*
%TO.P,R1,1*%
%TO.N,BOOST_ADC*%
X89500000Y-159000000D03*
%TO.P,R1,2*%
%TO.N,Net-(U1-IO4{slash}A5)*%
X87675000Y-159000000D03*
%TD*%
%TO.P,R14,1*%
%TO.N,BOOST_ADC*%
X89500000Y-163750000D03*
%TO.P,R14,2*%
%TO.N,Net-(D1-K)*%
X87675000Y-163750000D03*
%TD*%
D49*
%TO.P,Q2,1,G*%
%TO.N,I2C_2_PWR*%
X46258000Y-136083000D03*
%TO.P,Q2,2,S*%
%TO.N,Net-(J7-Pin_1)*%
X46258000Y-137983000D03*
%TO.P,Q2,3,D*%
%TO.N,+3V3*%
X48133000Y-137033000D03*
%TD*%
D50*
%TO.P,C8,1*%
%TO.N,Net-(JP4-C)*%
X63562500Y-162800000D03*
%TO.P,C8,2*%
%TO.N,GND*%
X59437500Y-162800000D03*
%TD*%
D26*
%TO.P,J32,1,Pin_1*%
%TO.N,Net-(J32-Pin_1)*%
X63119000Y-116713000D03*
%TD*%
D49*
%TO.P,Q3,1,G*%
%TO.N,Net-(Q3-G)*%
X59212000Y-154498000D03*
%TO.P,Q3,2,S*%
%TO.N,Net-(J2-Pin_5)*%
X59212000Y-156398000D03*
%TO.P,Q3,3,D*%
%TO.N,+3V3*%
X61087000Y-155448000D03*
%TD*%
D32*
%TO.P,J4,1,Pin_1*%
%TO.N,Net-(D1-K)*%
X63626600Y-168930000D03*
D33*
%TO.P,J4,2,Pin_2*%
%TO.N,GND*%
X63626600Y-171470000D03*
%TD*%
D51*
%TO.P,R8,1*%
%TO.N,Net-(J13-Pin_1)*%
X97900000Y-117912500D03*
%TO.P,R8,2*%
%TO.N,SW3*%
X97900000Y-116087500D03*
%TD*%
D37*
%TO.P,SW3,1,1*%
%TO.N,Net-(J13-Pin_1)*%
X107317400Y-130729600D03*
%TO.P,SW3,2,2*%
X113817400Y-130729600D03*
%TO.P,SW3,3,K*%
%TO.N,GND*%
X107317400Y-135229600D03*
%TO.P,SW3,4,A*%
X113817400Y-135229600D03*
%TD*%
D52*
%TO.P,C4,1*%
%TO.N,+5V*%
X70231000Y-172593000D03*
%TO.P,C4,2*%
%TO.N,GND*%
X67281000Y-172593000D03*
%TD*%
D53*
%TO.P,R7,1*%
%TO.N,OE*%
X62636400Y-151206200D03*
%TO.P,R7,2*%
%TO.N,Net-(Q3-G)*%
X60636400Y-151206200D03*
%TD*%
D54*
%TO.P,D1,1,K*%
%TO.N,Net-(D1-K)*%
X76200000Y-163900000D03*
%TO.P,D1,2,A*%
%TO.N,Net-(D1-A)*%
X74800000Y-163900000D03*
%TD*%
D32*
%TO.P,J7,1,Pin_1*%
%TO.N,Net-(J7-Pin_1)*%
X42672000Y-138049000D03*
D33*
%TO.P,J7,2,Pin_2*%
%TO.N,SDA*%
X42672000Y-140589000D03*
%TO.P,J7,3,Pin_3*%
%TO.N,SCL*%
X42672000Y-143129000D03*
%TO.P,J7,4,Pin_4*%
%TO.N,GND*%
X42672000Y-145669000D03*
%TD*%
D36*
%TO.P,R5,1*%
%TO.N,Net-(J8-Pin_1)*%
X95712500Y-136200000D03*
%TO.P,R5,2*%
%TO.N,SW2*%
X93887500Y-136200000D03*
%TD*%
D55*
%TO.P,JP4,1,A*%
%TO.N,BAT_V*%
X67132200Y-158902400D03*
D56*
%TO.P,JP4,2,C*%
%TO.N,Net-(JP4-C)*%
X65832200Y-158902400D03*
D57*
%TO.P,JP4,3,B*%
%TO.N,+3V3*%
X64532200Y-158902400D03*
%TD*%
D32*
%TO.P,J10,1,Pin_1*%
%TO.N,GND*%
X107594400Y-156164200D03*
D33*
%TO.P,J10,2,Pin_2*%
%TO.N,+3V3*%
X107594400Y-153624200D03*
%TD*%
D36*
%TO.P,R9,1*%
%TO.N,Net-(J12-Pin_1)*%
X107612500Y-120300000D03*
%TO.P,R9,2*%
%TO.N,SW4*%
X105787500Y-120300000D03*
%TD*%
D58*
%TO.P,U1,1,~{RESET}*%
%TO.N,unconnected-(U1-~{RESET}-Pad1)*%
X86752500Y-146300000D03*
D59*
%TO.P,U1,2,3V3*%
%TO.N,+3V3*%
X86752500Y-143760000D03*
%TO.P,U1,3,NC*%
%TO.N,unconnected-(U1-NC-Pad3)*%
X86752500Y-141220000D03*
%TO.P,U1,4,GND*%
%TO.N,GND*%
X86752500Y-138680000D03*
%TO.P,U1,5,DAC2/A0*%
%TO.N,BOOST_DAC_2*%
X86752500Y-136140000D03*
%TO.P,U1,6,DAC1/A1*%
%TO.N,BOOST_DAC_1*%
X86752500Y-133600000D03*
%TO.P,U1,7,I34/A2*%
%TO.N,SW1*%
X86752500Y-131060000D03*
%TO.P,U1,8,I39/A3*%
%TO.N,SW2*%
X86752500Y-128520000D03*
%TO.P,U1,9,IO36/A4*%
%TO.N,OLED_CS*%
X86752500Y-125980000D03*
%TO.P,U1,10,IO4/A5*%
%TO.N,Net-(U1-IO4{slash}A5)*%
X86752500Y-123440000D03*
%TO.P,U1,11,SCK/IO5*%
%TO.N,Net-(J15-Pin_1)*%
X86752500Y-120900000D03*
%TO.P,U1,12,MOSI/IO18*%
%TO.N,SW3*%
X86752500Y-118360000D03*
%TO.P,U1,13,MISO/IO19*%
%TO.N,SW4*%
X86752500Y-115820000D03*
%TO.P,U1,14,RX/IO16*%
%TO.N,OLED_DC*%
X86752500Y-113280000D03*
%TO.P,U1,15,TX/IO17*%
%TO.N,OLED_CLK*%
X86752500Y-110740000D03*
%TO.P,U1,16,IO21*%
%TO.N,OLED_DATA*%
X86752500Y-108200000D03*
%TO.P,U1,17,SDA/IO23*%
%TO.N,SDA*%
X67032500Y-108200000D03*
%TO.P,U1,18,SCL/IO22*%
%TO.N,SCL*%
X67032500Y-110740000D03*
%TO.P,U1,19,A6/IO14*%
%TO.N,Net-(U1-A6{slash}IO14)*%
X67032500Y-113280000D03*
%TO.P,U1,20,A7/IO32*%
%TO.N,Net-(J32-Pin_1)*%
X67032500Y-115820000D03*
%TO.P,U1,21,A8/IO15*%
%TO.N,Net-(U1-A8{slash}IO15)*%
X67032500Y-118360000D03*
%TO.P,U1,22,A9/IO33*%
%TO.N,Net-(J33-Pin_1)*%
X67032500Y-120900000D03*
%TO.P,U1,23,A10/IO27*%
%TO.N,OLED_RESET*%
X67032500Y-123440000D03*
%TO.P,U1,24,A11/IO12*%
%TO.N,OE*%
X67032500Y-125980000D03*
%TO.P,U1,25,A12/IO13*%
%TO.N,Net-(U1-A12{slash}IO13)*%
X67032500Y-128520000D03*
%TO.P,U1,26,USB*%
%TO.N,+5V*%
X67032500Y-131060000D03*
%TO.P,U1,27,EN*%
%TO.N,unconnected-(U1-EN-Pad27)*%
X67032500Y-133600000D03*
%TO.P,U1,28,VBAT*%
%TO.N,BAT_V*%
X67032500Y-136140000D03*
%TD*%
D60*
%TO.P,C2,1*%
%TO.N,Net-(D1-K)*%
X70510400Y-166700200D03*
%TO.P,C2,2*%
%TO.N,GND*%
X70510400Y-169825200D03*
%TD*%
D32*
%TO.P,J2,1,Pin_1*%
%TO.N,+3V3*%
X50139600Y-151739600D03*
D33*
%TO.P,J2,2,Pin_2*%
%TO.N,SDA*%
X50139600Y-154279600D03*
%TO.P,J2,3,Pin_3*%
%TO.N,SCL*%
X50139600Y-156819600D03*
%TO.P,J2,4,Pin_4*%
%TO.N,+5V*%
X50139600Y-159359600D03*
%TO.P,J2,5,Pin_5*%
%TO.N,Net-(J2-Pin_5)*%
X50139600Y-161899600D03*
%TO.P,J2,6,Pin_6*%
%TO.N,GND*%
X50139600Y-164439600D03*
%TD*%
D32*
%TO.P,J11,1,Pin_1*%
%TO.N,GND*%
X111252000Y-156159200D03*
D33*
%TO.P,J11,2,Pin_2*%
%TO.N,+3V3*%
X111252000Y-153619200D03*
%TD*%
D26*
%TO.P,TP1,1,1*%
%TO.N,GND*%
X95500000Y-171500000D03*
%TD*%
%TO.P,J14,1,Pin_1*%
%TO.N,BOOST_DAC_1*%
X90500000Y-126034800D03*
%TD*%
D48*
%TO.P,C6,1*%
%TO.N,+3V3*%
X91744800Y-147269200D03*
%TO.P,C6,2*%
%TO.N,GND*%
X94869800Y-147269200D03*
%TD*%
D26*
%TO.P,J33,1,Pin_1*%
%TO.N,Net-(J33-Pin_1)*%
X62992000Y-124460000D03*
%TD*%
D49*
%TO.P,Q1,1,G*%
%TO.N,I2C_1_PWR*%
X56388000Y-117983000D03*
%TO.P,Q1,2,S*%
%TO.N,Net-(J6-Pin_1)*%
X56388000Y-119883000D03*
%TO.P,Q1,3,D*%
%TO.N,+3V3*%
X58263000Y-118933000D03*
%TD*%
D37*
%TO.P,SW4,1,1*%
%TO.N,Net-(J12-Pin_1)*%
X104496800Y-123226000D03*
%TO.P,SW4,2,2*%
X110996800Y-123226000D03*
%TO.P,SW4,3,K*%
%TO.N,GND*%
X104496800Y-127726000D03*
%TO.P,SW4,4,A*%
X110996800Y-127726000D03*
%TD*%
D61*
%TO.N,Net-(J8-Pin_1)*%
X100800000Y-136000000D03*
%TO.N,GND*%
X78578247Y-163682148D03*
X77978000Y-163322000D03*
X98044000Y-145542000D03*
D62*
X91440000Y-174752000D03*
D61*
X75311000Y-168656000D03*
X84429600Y-139649200D03*
X60706000Y-171958000D03*
%TO.N,+3V3*%
X63627000Y-153162000D03*
X62128400Y-154355800D03*
X89560400Y-143662400D03*
X64566800Y-151866600D03*
X58293000Y-124968000D03*
X50292000Y-140589000D03*
%TO.N,+5V*%
X69189600Y-175793400D03*
X67437000Y-175818800D03*
%TO.N,OE*%
X63347600Y-135585200D03*
X63347600Y-130302000D03*
%TO.N,Net-(U1-IO4{slash}A5)*%
X83108800Y-141757400D03*
X78308200Y-140843000D03*
%TO.N,Net-(U1-A8{slash}IO15)*%
X56692800Y-138379200D03*
X53771800Y-137566400D03*
%TO.N,Net-(J9-Pin_1)*%
X102500000Y-138600000D03*
%TD*%
M02*
