%TF.GenerationSoftware,KiCad,Pcbnew,8.0.5*%
%TF.CreationDate,2024-10-27T20:41:26+01:00*%
%TF.ProjectId,Fragrance,46726167-7261-46e6-9365-2e6b69636164,rev?*%
%TF.SameCoordinates,Original*%
%TF.FileFunction,Legend,Bot*%
%TF.FilePolarity,Positive*%
%FSLAX46Y46*%
G04 Gerber Fmt 4.6, Leading zero omitted, Abs format (unit mm)*
G04 Created by KiCad (PCBNEW 8.0.5) date 2024-10-27 20:41:26*
%MOMM*%
%LPD*%
G01*
G04 APERTURE LIST*
%ADD10C,1.050000*%
%ADD11C,0.500000*%
%ADD12C,0.100000*%
%ADD13C,0.200000*%
G04 APERTURE END LIST*
D10*
X77825000Y-109400000D02*
G75*
G02*
X76775000Y-109400000I-525000J0D01*
G01*
X76775000Y-109400000D02*
G75*
G02*
X77825000Y-109400000I525000J0D01*
G01*
D11*
X74500001Y-107100001D02*
G75*
G02*
X80028409Y-107066788I2782327J-2999994D01*
G01*
X73501178Y-106211210D02*
G75*
G02*
X81210382Y-106390549I3772435J-3621761D01*
G01*
X75621856Y-107969654D02*
G75*
G02*
X78978144Y-107969654I1678144J-2186995D01*
G01*
D12*
X52120800Y-132689600D02*
X105511600Y-132689600D01*
X105511600Y-167589200D01*
X52120800Y-167589200D01*
X52120800Y-132689600D01*
D13*
X101890314Y-145768720D02*
X101961742Y-145983006D01*
X101961742Y-145983006D02*
X102033171Y-146054435D01*
X102033171Y-146054435D02*
X102176028Y-146125863D01*
X102176028Y-146125863D02*
X102390314Y-146125863D01*
X102390314Y-146125863D02*
X102533171Y-146054435D01*
X102533171Y-146054435D02*
X102604600Y-145983006D01*
X102604600Y-145983006D02*
X102676028Y-145840149D01*
X102676028Y-145840149D02*
X102676028Y-145268720D01*
X102676028Y-145268720D02*
X101176028Y-145268720D01*
X101176028Y-145268720D02*
X101176028Y-145768720D01*
X101176028Y-145768720D02*
X101247457Y-145911578D01*
X101247457Y-145911578D02*
X101318885Y-145983006D01*
X101318885Y-145983006D02*
X101461742Y-146054435D01*
X101461742Y-146054435D02*
X101604600Y-146054435D01*
X101604600Y-146054435D02*
X101747457Y-145983006D01*
X101747457Y-145983006D02*
X101818885Y-145911578D01*
X101818885Y-145911578D02*
X101890314Y-145768720D01*
X101890314Y-145768720D02*
X101890314Y-145268720D01*
X102247457Y-146697292D02*
X102247457Y-147411578D01*
X102676028Y-146554435D02*
X101176028Y-147054435D01*
X101176028Y-147054435D02*
X102676028Y-147554435D01*
X101176028Y-147840149D02*
X101176028Y-148697292D01*
X102676028Y-148268720D02*
X101176028Y-148268720D01*
X101176028Y-148983006D02*
X101176028Y-149840149D01*
X102676028Y-149411577D02*
X101176028Y-149411577D01*
X101890314Y-150340148D02*
X101890314Y-150840148D01*
X102676028Y-151054434D02*
X102676028Y-150340148D01*
X102676028Y-150340148D02*
X101176028Y-150340148D01*
X101176028Y-150340148D02*
X101176028Y-151054434D01*
X102676028Y-152554434D02*
X101961742Y-152054434D01*
X102676028Y-151697291D02*
X101176028Y-151697291D01*
X101176028Y-151697291D02*
X101176028Y-152268720D01*
X101176028Y-152268720D02*
X101247457Y-152411577D01*
X101247457Y-152411577D02*
X101318885Y-152483006D01*
X101318885Y-152483006D02*
X101461742Y-152554434D01*
X101461742Y-152554434D02*
X101676028Y-152554434D01*
X101676028Y-152554434D02*
X101818885Y-152483006D01*
X101818885Y-152483006D02*
X101890314Y-152411577D01*
X101890314Y-152411577D02*
X101961742Y-152268720D01*
X101961742Y-152268720D02*
X101961742Y-151697291D01*
X101961742Y-153483006D02*
X102676028Y-153483006D01*
X101176028Y-152983006D02*
X101961742Y-153483006D01*
X101961742Y-153483006D02*
X101176028Y-153983006D01*
X102676028Y-155625862D02*
X101176028Y-155625862D01*
X101176028Y-155625862D02*
X101176028Y-156197291D01*
X101176028Y-156197291D02*
X101247457Y-156340148D01*
X101247457Y-156340148D02*
X101318885Y-156411577D01*
X101318885Y-156411577D02*
X101461742Y-156483005D01*
X101461742Y-156483005D02*
X101676028Y-156483005D01*
X101676028Y-156483005D02*
X101818885Y-156411577D01*
X101818885Y-156411577D02*
X101890314Y-156340148D01*
X101890314Y-156340148D02*
X101961742Y-156197291D01*
X101961742Y-156197291D02*
X101961742Y-155625862D01*
X102247457Y-157054434D02*
X102247457Y-157768720D01*
X102676028Y-156911577D02*
X101176028Y-157411577D01*
X101176028Y-157411577D02*
X102676028Y-157911577D01*
X102533171Y-159268719D02*
X102604600Y-159197291D01*
X102604600Y-159197291D02*
X102676028Y-158983005D01*
X102676028Y-158983005D02*
X102676028Y-158840148D01*
X102676028Y-158840148D02*
X102604600Y-158625862D01*
X102604600Y-158625862D02*
X102461742Y-158483005D01*
X102461742Y-158483005D02*
X102318885Y-158411576D01*
X102318885Y-158411576D02*
X102033171Y-158340148D01*
X102033171Y-158340148D02*
X101818885Y-158340148D01*
X101818885Y-158340148D02*
X101533171Y-158411576D01*
X101533171Y-158411576D02*
X101390314Y-158483005D01*
X101390314Y-158483005D02*
X101247457Y-158625862D01*
X101247457Y-158625862D02*
X101176028Y-158840148D01*
X101176028Y-158840148D02*
X101176028Y-158983005D01*
X101176028Y-158983005D02*
X101247457Y-159197291D01*
X101247457Y-159197291D02*
X101318885Y-159268719D01*
X102676028Y-159911576D02*
X101176028Y-159911576D01*
X102676028Y-160768719D02*
X101818885Y-160125862D01*
X101176028Y-160768719D02*
X102033171Y-159911576D01*
X90082707Y-169934600D02*
X89868422Y-170006028D01*
X89868422Y-170006028D02*
X89511279Y-170006028D01*
X89511279Y-170006028D02*
X89368422Y-169934600D01*
X89368422Y-169934600D02*
X89296993Y-169863171D01*
X89296993Y-169863171D02*
X89225564Y-169720314D01*
X89225564Y-169720314D02*
X89225564Y-169577457D01*
X89225564Y-169577457D02*
X89296993Y-169434600D01*
X89296993Y-169434600D02*
X89368422Y-169363171D01*
X89368422Y-169363171D02*
X89511279Y-169291742D01*
X89511279Y-169291742D02*
X89796993Y-169220314D01*
X89796993Y-169220314D02*
X89939850Y-169148885D01*
X89939850Y-169148885D02*
X90011279Y-169077457D01*
X90011279Y-169077457D02*
X90082707Y-168934600D01*
X90082707Y-168934600D02*
X90082707Y-168791742D01*
X90082707Y-168791742D02*
X90011279Y-168648885D01*
X90011279Y-168648885D02*
X89939850Y-168577457D01*
X89939850Y-168577457D02*
X89796993Y-168506028D01*
X89796993Y-168506028D02*
X89439850Y-168506028D01*
X89439850Y-168506028D02*
X89225564Y-168577457D01*
X87725565Y-169863171D02*
X87796993Y-169934600D01*
X87796993Y-169934600D02*
X88011279Y-170006028D01*
X88011279Y-170006028D02*
X88154136Y-170006028D01*
X88154136Y-170006028D02*
X88368422Y-169934600D01*
X88368422Y-169934600D02*
X88511279Y-169791742D01*
X88511279Y-169791742D02*
X88582708Y-169648885D01*
X88582708Y-169648885D02*
X88654136Y-169363171D01*
X88654136Y-169363171D02*
X88654136Y-169148885D01*
X88654136Y-169148885D02*
X88582708Y-168863171D01*
X88582708Y-168863171D02*
X88511279Y-168720314D01*
X88511279Y-168720314D02*
X88368422Y-168577457D01*
X88368422Y-168577457D02*
X88154136Y-168506028D01*
X88154136Y-168506028D02*
X88011279Y-168506028D01*
X88011279Y-168506028D02*
X87796993Y-168577457D01*
X87796993Y-168577457D02*
X87725565Y-168648885D01*
X87082708Y-169220314D02*
X86582708Y-169220314D01*
X86368422Y-170006028D02*
X87082708Y-170006028D01*
X87082708Y-170006028D02*
X87082708Y-168506028D01*
X87082708Y-168506028D02*
X86368422Y-168506028D01*
X85725565Y-170006028D02*
X85725565Y-168506028D01*
X85725565Y-168506028D02*
X84868422Y-170006028D01*
X84868422Y-170006028D02*
X84868422Y-168506028D01*
X84368421Y-168506028D02*
X83511279Y-168506028D01*
X83939850Y-170006028D02*
X83939850Y-168506028D01*
X81868422Y-170006028D02*
X81868422Y-168506028D01*
X81868422Y-168506028D02*
X81511279Y-168506028D01*
X81511279Y-168506028D02*
X81296993Y-168577457D01*
X81296993Y-168577457D02*
X81154136Y-168720314D01*
X81154136Y-168720314D02*
X81082707Y-168863171D01*
X81082707Y-168863171D02*
X81011279Y-169148885D01*
X81011279Y-169148885D02*
X81011279Y-169363171D01*
X81011279Y-169363171D02*
X81082707Y-169648885D01*
X81082707Y-169648885D02*
X81154136Y-169791742D01*
X81154136Y-169791742D02*
X81296993Y-169934600D01*
X81296993Y-169934600D02*
X81511279Y-170006028D01*
X81511279Y-170006028D02*
X81868422Y-170006028D01*
X80368422Y-170006028D02*
X80368422Y-168506028D01*
X79154136Y-169220314D02*
X79654136Y-169220314D01*
X79654136Y-170006028D02*
X79654136Y-168506028D01*
X79654136Y-168506028D02*
X78939850Y-168506028D01*
X77868422Y-169220314D02*
X78368422Y-169220314D01*
X78368422Y-170006028D02*
X78368422Y-168506028D01*
X78368422Y-168506028D02*
X77654136Y-168506028D01*
X77082708Y-168506028D02*
X77082708Y-169720314D01*
X77082708Y-169720314D02*
X77011279Y-169863171D01*
X77011279Y-169863171D02*
X76939851Y-169934600D01*
X76939851Y-169934600D02*
X76796993Y-170006028D01*
X76796993Y-170006028D02*
X76511279Y-170006028D01*
X76511279Y-170006028D02*
X76368422Y-169934600D01*
X76368422Y-169934600D02*
X76296993Y-169863171D01*
X76296993Y-169863171D02*
X76225565Y-169720314D01*
X76225565Y-169720314D02*
X76225565Y-168506028D01*
X75582707Y-169934600D02*
X75368422Y-170006028D01*
X75368422Y-170006028D02*
X75011279Y-170006028D01*
X75011279Y-170006028D02*
X74868422Y-169934600D01*
X74868422Y-169934600D02*
X74796993Y-169863171D01*
X74796993Y-169863171D02*
X74725564Y-169720314D01*
X74725564Y-169720314D02*
X74725564Y-169577457D01*
X74725564Y-169577457D02*
X74796993Y-169434600D01*
X74796993Y-169434600D02*
X74868422Y-169363171D01*
X74868422Y-169363171D02*
X75011279Y-169291742D01*
X75011279Y-169291742D02*
X75296993Y-169220314D01*
X75296993Y-169220314D02*
X75439850Y-169148885D01*
X75439850Y-169148885D02*
X75511279Y-169077457D01*
X75511279Y-169077457D02*
X75582707Y-168934600D01*
X75582707Y-168934600D02*
X75582707Y-168791742D01*
X75582707Y-168791742D02*
X75511279Y-168648885D01*
X75511279Y-168648885D02*
X75439850Y-168577457D01*
X75439850Y-168577457D02*
X75296993Y-168506028D01*
X75296993Y-168506028D02*
X74939850Y-168506028D01*
X74939850Y-168506028D02*
X74725564Y-168577457D01*
X74082708Y-169220314D02*
X73582708Y-169220314D01*
X73368422Y-170006028D02*
X74082708Y-170006028D01*
X74082708Y-170006028D02*
X74082708Y-168506028D01*
X74082708Y-168506028D02*
X73368422Y-168506028D01*
X71868422Y-170006028D02*
X72368422Y-169291742D01*
X72725565Y-170006028D02*
X72725565Y-168506028D01*
X72725565Y-168506028D02*
X72154136Y-168506028D01*
X72154136Y-168506028D02*
X72011279Y-168577457D01*
X72011279Y-168577457D02*
X71939850Y-168648885D01*
X71939850Y-168648885D02*
X71868422Y-168791742D01*
X71868422Y-168791742D02*
X71868422Y-169006028D01*
X71868422Y-169006028D02*
X71939850Y-169148885D01*
X71939850Y-169148885D02*
X72011279Y-169220314D01*
X72011279Y-169220314D02*
X72154136Y-169291742D01*
X72154136Y-169291742D02*
X72725565Y-169291742D01*
X70296993Y-168506028D02*
X69796993Y-170006028D01*
X69796993Y-170006028D02*
X69296993Y-168506028D01*
X68011279Y-170006028D02*
X68868422Y-170006028D01*
X68439851Y-170006028D02*
X68439851Y-168506028D01*
X68439851Y-168506028D02*
X68582708Y-168720314D01*
X68582708Y-168720314D02*
X68725565Y-168863171D01*
X68725565Y-168863171D02*
X68868422Y-168934600D01*
X67368423Y-169863171D02*
X67296994Y-169934600D01*
X67296994Y-169934600D02*
X67368423Y-170006028D01*
X67368423Y-170006028D02*
X67439851Y-169934600D01*
X67439851Y-169934600D02*
X67368423Y-169863171D01*
X67368423Y-169863171D02*
X67368423Y-170006028D01*
X66368422Y-168506028D02*
X66225565Y-168506028D01*
X66225565Y-168506028D02*
X66082708Y-168577457D01*
X66082708Y-168577457D02*
X66011280Y-168648885D01*
X66011280Y-168648885D02*
X65939851Y-168791742D01*
X65939851Y-168791742D02*
X65868422Y-169077457D01*
X65868422Y-169077457D02*
X65868422Y-169434600D01*
X65868422Y-169434600D02*
X65939851Y-169720314D01*
X65939851Y-169720314D02*
X66011280Y-169863171D01*
X66011280Y-169863171D02*
X66082708Y-169934600D01*
X66082708Y-169934600D02*
X66225565Y-170006028D01*
X66225565Y-170006028D02*
X66368422Y-170006028D01*
X66368422Y-170006028D02*
X66511280Y-169934600D01*
X66511280Y-169934600D02*
X66582708Y-169863171D01*
X66582708Y-169863171D02*
X66654137Y-169720314D01*
X66654137Y-169720314D02*
X66725565Y-169434600D01*
X66725565Y-169434600D02*
X66725565Y-169077457D01*
X66725565Y-169077457D02*
X66654137Y-168791742D01*
X66654137Y-168791742D02*
X66582708Y-168648885D01*
X66582708Y-168648885D02*
X66511280Y-168577457D01*
X66511280Y-168577457D02*
X66368422Y-168506028D01*
M02*
