M48
; DRILL file {KiCad 8.0.5} date 2024-10-28T10:04:13+0100
; FORMAT={-:-/ absolute / inch / decimal}
; #@! TF.CreationDate,2024-10-28T10:04:13+01:00
; #@! TF.GenerationSoftware,Kicad,Pcbnew,8.0.5
; #@! TF.FileFunction,Plated,1,2,PTH
FMAT,2
INCH
; #@! TA.AperFunction,Plated,PTH,ViaDrill
T1C0.0118
; #@! TA.AperFunction,Plated,PTH,ComponentDrill
T2C0.0236
; #@! TA.AperFunction,Plated,PTH,ComponentDrill
T3C0.0335
; #@! TA.AperFunction,Plated,PTH,ComponentDrill
T4C0.0394
; #@! TA.AperFunction,Plated,PTH,ComponentDrill
T5C0.0433
%
G90
G05
T1
X1.98Y-5.535
X2.117Y-5.416
X2.232Y-5.448
X2.295Y-4.92
X2.39Y-6.77
X2.446Y-6.077
X2.494Y-5.13
X2.494Y-5.338
X2.505Y-6.03
X2.542Y-5.979
X2.655Y-6.922
X2.724Y-6.921
X2.965Y-6.64
X3.07Y-6.43
X3.083Y-5.545
X3.0936Y-6.4442
X3.272Y-5.581
X3.324Y-5.498
X3.526Y-5.656
X3.6Y-6.88
X3.86Y-5.73
X3.9685Y-5.3543
X4.0354Y-5.4567
T3
X2.9232Y-6.9237
X3.1201Y-6.9237
T4
X1.68Y-5.435
X1.68Y-5.535
X1.68Y-5.635
X1.68Y-5.735
X1.974Y-5.974
X1.974Y-6.074
X1.974Y-6.174
X1.974Y-6.274
X1.974Y-6.374
X1.974Y-6.474
X2.0966Y-4.6954
X2.0966Y-4.7954
X2.0966Y-4.8954
X2.0966Y-4.9954
X2.3898Y-5.3543
X2.48Y-4.9
X2.485Y-4.595
X2.505Y-6.6508
X2.505Y-6.7508
X2.6273Y-4.2598
X2.6273Y-4.3598
X2.6273Y-4.4598
X2.6273Y-4.5598
X2.6273Y-4.6598
X2.6273Y-4.7598
X2.6273Y-4.8598
X2.6273Y-4.9598
X2.6273Y-5.0598
X2.6273Y-5.1598
X2.6273Y-5.2598
X2.6273Y-5.3598
X2.904Y-6.778
X3.004Y-6.778
X3.4273Y-4.2598
X3.4273Y-4.3598
X3.4273Y-4.4598
X3.4273Y-4.5598
X3.4273Y-4.6598
X3.4273Y-4.7598
X3.4273Y-4.8598
X3.4273Y-4.9598
X3.4273Y-5.0598
X3.4273Y-5.1598
X3.4273Y-5.2598
X3.4273Y-5.3598
X3.4273Y-5.4598
X3.4273Y-5.5598
X3.4273Y-5.6598
X3.4273Y-5.7598
X3.558Y-4.78
X3.563Y-4.962
X3.704Y-4.472
X3.704Y-4.572
X3.704Y-4.672
X3.704Y-4.772
X3.704Y-4.872
X3.704Y-4.972
X3.704Y-5.072
X3.704Y-5.172
X3.7598Y-6.752
X3.865Y-4.45
X3.878Y-4.748
X3.878Y-4.8858
X3.878Y-5.0315
X4.236Y-6.0482
X4.236Y-6.1482
X4.38Y-6.048
X4.38Y-6.148
T5
X4.114Y-4.8514
X4.114Y-5.0286
X4.225Y-5.4434
X4.225Y-5.6206
X4.2251Y-5.1468
X4.2251Y-5.324
X4.2251Y-5.7398
X4.2251Y-5.917
X4.37Y-4.8514
X4.37Y-5.0286
X4.481Y-5.4434
X4.481Y-5.6206
X4.481Y-5.1468
X4.481Y-5.324
X4.481Y-5.7398
X4.481Y-5.917
T2
G00X2.8839Y-7.0438
M15
G01X2.8839Y-7.0162
M16
G05
G00X3.1594Y-7.0162
M15
G01X3.1594Y-7.0438
M16
G05
M30
