%TF.GenerationSoftware,KiCad,Pcbnew,8.0.5*%
%TF.CreationDate,2024-10-27T20:41:26+01:00*%
%TF.ProjectId,Fragrance,46726167-7261-46e6-9365-2e6b69636164,rev?*%
%TF.SameCoordinates,Original*%
%TF.FileFunction,Soldermask,Top*%
%TF.FilePolarity,Negative*%
%FSLAX46Y46*%
G04 Gerber Fmt 4.6, Leading zero omitted, Abs format (unit mm)*
G04 Created by KiCad (PCBNEW 8.0.5) date 2024-10-27 20:41:26*
%MOMM*%
%LPD*%
G01*
G04 APERTURE LIST*
G04 Aperture macros list*
%AMRoundRect*
0 Rectangle with rounded corners*
0 $1 Rounding radius*
0 $2 $3 $4 $5 $6 $7 $8 $9 X,Y pos of 4 corners*
0 Add a 4 corners polygon primitive as box body*
4,1,4,$2,$3,$4,$5,$6,$7,$8,$9,$2,$3,0*
0 Add four circle primitives for the rounded corners*
1,1,$1+$1,$2,$3*
1,1,$1+$1,$4,$5*
1,1,$1+$1,$6,$7*
1,1,$1+$1,$8,$9*
0 Add four rect primitives between the rounded corners*
20,1,$1+$1,$2,$3,$4,$5,0*
20,1,$1+$1,$4,$5,$6,$7,0*
20,1,$1+$1,$6,$7,$8,$9,0*
20,1,$1+$1,$8,$9,$2,$3,0*%
%AMFreePoly0*
4,1,19,0.500000,-0.750000,0.000000,-0.750000,0.000000,-0.744911,-0.071157,-0.744911,-0.207708,-0.704816,-0.327430,-0.627875,-0.420627,-0.520320,-0.479746,-0.390866,-0.500000,-0.250000,-0.500000,0.250000,-0.479746,0.390866,-0.420627,0.520320,-0.327430,0.627875,-0.207708,0.704816,-0.071157,0.744911,0.000000,0.744911,0.000000,0.750000,0.500000,0.750000,0.500000,-0.750000,0.500000,-0.750000,
$1*%
%AMFreePoly1*
4,1,19,0.000000,0.744911,0.071157,0.744911,0.207708,0.704816,0.327430,0.627875,0.420627,0.520320,0.479746,0.390866,0.500000,0.250000,0.500000,-0.250000,0.479746,-0.390866,0.420627,-0.520320,0.327430,-0.627875,0.207708,-0.704816,0.071157,-0.744911,0.000000,-0.744911,0.000000,-0.750000,-0.500000,-0.750000,-0.500000,0.750000,0.000000,0.750000,0.000000,0.744911,0.000000,0.744911,
$1*%
%AMFreePoly2*
4,1,19,0.550000,-0.750000,0.000000,-0.750000,0.000000,-0.744911,-0.071157,-0.744911,-0.207708,-0.704816,-0.327430,-0.627875,-0.420627,-0.520320,-0.479746,-0.390866,-0.500000,-0.250000,-0.500000,0.250000,-0.479746,0.390866,-0.420627,0.520320,-0.327430,0.627875,-0.207708,0.704816,-0.071157,0.744911,0.000000,0.744911,0.000000,0.750000,0.550000,0.750000,0.550000,-0.750000,0.550000,-0.750000,
$1*%
%AMFreePoly3*
4,1,19,0.000000,0.744911,0.071157,0.744911,0.207708,0.704816,0.327430,0.627875,0.420627,0.520320,0.479746,0.390866,0.500000,0.250000,0.500000,-0.250000,0.479746,-0.390866,0.420627,-0.520320,0.327430,-0.627875,0.207708,-0.704816,0.071157,-0.744911,0.000000,-0.744911,0.000000,-0.750000,-0.550000,-0.750000,-0.550000,0.750000,0.000000,0.750000,0.000000,0.744911,0.000000,0.744911,
$1*%
G04 Aperture macros list end*
%ADD10C,0.100000*%
%ADD11C,1.000000*%
%ADD12R,2.000000X2.000000*%
%ADD13RoundRect,0.250000X-0.262500X-0.450000X0.262500X-0.450000X0.262500X0.450000X-0.262500X0.450000X0*%
%ADD14RoundRect,0.250000X0.550000X-1.137500X0.550000X1.137500X-0.550000X1.137500X-0.550000X-1.137500X0*%
%ADD15RoundRect,0.250000X0.412500X0.650000X-0.412500X0.650000X-0.412500X-0.650000X0.412500X-0.650000X0*%
%ADD16FreePoly0,0.000000*%
%ADD17FreePoly1,0.000000*%
%ADD18R,1.700000X1.700000*%
%ADD19O,1.700000X1.700000*%
%ADD20FreePoly0,180.000000*%
%ADD21FreePoly1,180.000000*%
%ADD22RoundRect,0.250000X0.262500X0.450000X-0.262500X0.450000X-0.262500X-0.450000X0.262500X-0.450000X0*%
%ADD23C,2.000000*%
%ADD24RoundRect,0.162500X0.837500X0.162500X-0.837500X0.162500X-0.837500X-0.162500X0.837500X-0.162500X0*%
%ADD25RoundRect,0.250000X-0.350000X-0.450000X0.350000X-0.450000X0.350000X0.450000X-0.350000X0.450000X0*%
%ADD26RoundRect,0.250000X0.400000X0.450000X-0.400000X0.450000X-0.400000X-0.450000X0.400000X-0.450000X0*%
%ADD27RoundRect,0.250000X0.337500X0.475000X-0.337500X0.475000X-0.337500X-0.475000X0.337500X-0.475000X0*%
%ADD28RoundRect,0.250000X-0.700000X0.362500X-0.700000X-0.362500X0.700000X-0.362500X0.700000X0.362500X0*%
%ADD29R,0.400000X1.350000*%
%ADD30O,1.200000X1.900000*%
%ADD31R,1.200000X1.900000*%
%ADD32C,1.450000*%
%ADD33R,1.500000X1.900000*%
%ADD34RoundRect,0.250000X-0.412500X-0.650000X0.412500X-0.650000X0.412500X0.650000X-0.412500X0.650000X0*%
%ADD35RoundRect,0.150000X-0.587500X-0.150000X0.587500X-0.150000X0.587500X0.150000X-0.587500X0.150000X0*%
%ADD36RoundRect,0.250000X1.137500X0.550000X-1.137500X0.550000X-1.137500X-0.550000X1.137500X-0.550000X0*%
%ADD37RoundRect,0.250000X0.450000X-0.262500X0.450000X0.262500X-0.450000X0.262500X-0.450000X-0.262500X0*%
%ADD38RoundRect,0.250000X0.325000X0.650000X-0.325000X0.650000X-0.325000X-0.650000X0.325000X-0.650000X0*%
%ADD39RoundRect,0.250000X0.350000X0.450000X-0.350000X0.450000X-0.350000X-0.450000X0.350000X-0.450000X0*%
%ADD40RoundRect,0.150000X-0.150000X-0.200000X0.150000X-0.200000X0.150000X0.200000X-0.150000X0.200000X0*%
%ADD41FreePoly2,180.000000*%
%ADD42R,1.000000X1.500000*%
%ADD43FreePoly3,180.000000*%
%ADD44RoundRect,0.250000X1.050000X0.550000X-1.050000X0.550000X-1.050000X-0.550000X1.050000X-0.550000X0*%
%ADD45O,2.600000X1.600000*%
%ADD46RoundRect,0.250000X-0.650000X0.412500X-0.650000X-0.412500X0.650000X-0.412500X0.650000X0.412500X0*%
G04 APERTURE END LIST*
D10*
X76600000Y-164211200D02*
X76306400Y-164211200D01*
X76306400Y-163600000D01*
X76600000Y-163600000D01*
X76600000Y-164211200D01*
G36*
X76600000Y-164211200D02*
G01*
X76306400Y-164211200D01*
X76306400Y-163600000D01*
X76600000Y-163600000D01*
X76600000Y-164211200D01*
G37*
D11*
X74142600Y-159435800D02*
X76022200Y-159435800D01*
X74066400Y-157073600D02*
X75946000Y-157073600D01*
X77819250Y-160350200D02*
X79101950Y-160350200D01*
X74091800Y-155016200D02*
X75971400Y-155016200D01*
X77165200Y-158292800D02*
X79044800Y-158292800D01*
X71247000Y-158343600D02*
X73126600Y-158343600D01*
D10*
X74300000Y-163595200D02*
X74884200Y-163595200D01*
X74884200Y-164204800D01*
X74300000Y-164204800D01*
X74300000Y-163595200D01*
G36*
X74300000Y-163595200D02*
G01*
X74884200Y-163595200D01*
X74884200Y-164204800D01*
X74300000Y-164204800D01*
X74300000Y-163595200D01*
G37*
D12*
%TO.C,J9*%
X98500000Y-124100000D03*
%TD*%
%TO.C,J8*%
X98500000Y-127800000D03*
%TD*%
D13*
%TO.C,R21*%
X81175000Y-161250000D03*
X83000000Y-161250000D03*
%TD*%
D14*
%TO.C,C5*%
X92303600Y-143611600D03*
X92303600Y-139486600D03*
%TD*%
D15*
%TO.C,C3*%
X83401300Y-165963600D03*
X80276300Y-165963600D03*
%TD*%
D16*
%TO.C,JP3*%
X59550000Y-158600000D03*
D17*
X60850000Y-158600000D03*
%TD*%
D18*
%TO.C,J5*%
X73761600Y-172161200D03*
D19*
X76301600Y-172161200D03*
%TD*%
D12*
%TO.C,TP2*%
X60700000Y-136000000D03*
%TD*%
D16*
%TO.C,JP2*%
X46960000Y-140335000D03*
D17*
X48260000Y-140335000D03*
%TD*%
D20*
%TO.C,JP5*%
X87071200Y-176733200D03*
D21*
X85771200Y-176733200D03*
%TD*%
D22*
%TO.C,R15*%
X89968000Y-154087000D03*
X88143000Y-154087000D03*
%TD*%
D12*
%TO.C,J15*%
X90373200Y-121412000D03*
%TD*%
D23*
%TO.C,SW2*%
X107316200Y-138262800D03*
X113816200Y-138262800D03*
X107316200Y-142762800D03*
X113816200Y-142762800D03*
%TD*%
D24*
%TO.C,U2*%
X72999600Y-163444000D03*
X72999600Y-162494000D03*
X72999600Y-161544000D03*
X69579600Y-161544000D03*
X69579600Y-163444000D03*
%TD*%
D23*
%TO.C,SW1*%
X107317400Y-145791800D03*
X113817400Y-145791800D03*
X107317400Y-150291800D03*
X113817400Y-150291800D03*
%TD*%
D12*
%TO.C,J13*%
X98500000Y-120600000D03*
%TD*%
D13*
%TO.C,R2*%
X68884800Y-155676600D03*
X70709800Y-155676600D03*
%TD*%
D25*
%TO.C,R4*%
X47784000Y-133604000D03*
X49784000Y-133604000D03*
%TD*%
D18*
%TO.C,J3*%
X94081600Y-113588800D03*
D19*
X94081600Y-116128800D03*
X94081600Y-118668800D03*
X94081600Y-121208800D03*
X94081600Y-123748800D03*
X94081600Y-126288800D03*
X94081600Y-128828800D03*
X94081600Y-131368800D03*
%TD*%
D26*
%TO.C,D2*%
X76250000Y-165900000D03*
X73350000Y-165900000D03*
%TD*%
D16*
%TO.C,JP1*%
X56866000Y-122682000D03*
D17*
X58166000Y-122682000D03*
%TD*%
D27*
%TO.C,C1*%
X83000000Y-163500000D03*
X80925000Y-163500000D03*
%TD*%
D28*
%TO.C,L1*%
X66900000Y-161637500D03*
X66900000Y-164962500D03*
%TD*%
D13*
%TO.C,R20*%
X87675000Y-161250000D03*
X89500000Y-161250000D03*
%TD*%
D29*
%TO.C,J1*%
X75450000Y-175862000D03*
X76100000Y-175862000D03*
X76750000Y-175862000D03*
X77400000Y-175862000D03*
X78050000Y-175862000D03*
D30*
X73250000Y-178562000D03*
D31*
X73850000Y-178562000D03*
D32*
X74250000Y-175862000D03*
D33*
X75750000Y-178562000D03*
X77750000Y-178562000D03*
D32*
X79250000Y-175862000D03*
D31*
X79650000Y-178562000D03*
D30*
X80250000Y-178562000D03*
%TD*%
D34*
%TO.C,C7*%
X87566100Y-156337000D03*
X90691100Y-156337000D03*
%TD*%
D22*
%TO.C,R6*%
X103312500Y-141100000D03*
X101487500Y-141100000D03*
%TD*%
D25*
%TO.C,R3*%
X56134000Y-115443000D03*
X58134000Y-115443000D03*
%TD*%
D12*
%TO.C,J12*%
X98171000Y-113030000D03*
%TD*%
D18*
%TO.C,J6*%
X53253000Y-119263000D03*
D19*
X53253000Y-121803000D03*
X53253000Y-124343000D03*
X53253000Y-126883000D03*
%TD*%
D22*
%TO.C,R1*%
X89500000Y-159000000D03*
X87675000Y-159000000D03*
%TD*%
%TO.C,R14*%
X89500000Y-163750000D03*
X87675000Y-163750000D03*
%TD*%
D35*
%TO.C,Q2*%
X46258000Y-136083000D03*
X46258000Y-137983000D03*
X48133000Y-137033000D03*
%TD*%
D36*
%TO.C,C8*%
X63562500Y-162800000D03*
X59437500Y-162800000D03*
%TD*%
D12*
%TO.C,J32*%
X63119000Y-116713000D03*
%TD*%
D35*
%TO.C,Q3*%
X59212000Y-154498000D03*
X59212000Y-156398000D03*
X61087000Y-155448000D03*
%TD*%
D18*
%TO.C,J4*%
X63626600Y-168930000D03*
D19*
X63626600Y-171470000D03*
%TD*%
D37*
%TO.C,R8*%
X97900000Y-117912500D03*
X97900000Y-116087500D03*
%TD*%
D23*
%TO.C,SW3*%
X107317400Y-130729600D03*
X113817400Y-130729600D03*
X107317400Y-135229600D03*
X113817400Y-135229600D03*
%TD*%
D38*
%TO.C,C4*%
X70231000Y-172593000D03*
X67281000Y-172593000D03*
%TD*%
D39*
%TO.C,R7*%
X62636400Y-151206200D03*
X60636400Y-151206200D03*
%TD*%
D40*
%TO.C,D1*%
X76200000Y-163900000D03*
X74800000Y-163900000D03*
%TD*%
D18*
%TO.C,J7*%
X42672000Y-138049000D03*
D19*
X42672000Y-140589000D03*
X42672000Y-143129000D03*
X42672000Y-145669000D03*
%TD*%
D22*
%TO.C,R5*%
X95712500Y-136200000D03*
X93887500Y-136200000D03*
%TD*%
D41*
%TO.C,JP4*%
X67132200Y-158902400D03*
D42*
X65832200Y-158902400D03*
D43*
X64532200Y-158902400D03*
%TD*%
D18*
%TO.C,J10*%
X107594400Y-156164200D03*
D19*
X107594400Y-153624200D03*
%TD*%
D22*
%TO.C,R9*%
X107612500Y-120300000D03*
X105787500Y-120300000D03*
%TD*%
D44*
%TO.C,U1*%
X86752500Y-146300000D03*
D45*
X86752500Y-143760000D03*
X86752500Y-141220000D03*
X86752500Y-138680000D03*
X86752500Y-136140000D03*
X86752500Y-133600000D03*
X86752500Y-131060000D03*
X86752500Y-128520000D03*
X86752500Y-125980000D03*
X86752500Y-123440000D03*
X86752500Y-120900000D03*
X86752500Y-118360000D03*
X86752500Y-115820000D03*
X86752500Y-113280000D03*
X86752500Y-110740000D03*
X86752500Y-108200000D03*
X67032500Y-108200000D03*
X67032500Y-110740000D03*
X67032500Y-113280000D03*
X67032500Y-115820000D03*
X67032500Y-118360000D03*
X67032500Y-120900000D03*
X67032500Y-123440000D03*
X67032500Y-125980000D03*
X67032500Y-128520000D03*
X67032500Y-131060000D03*
X67032500Y-133600000D03*
X67032500Y-136140000D03*
%TD*%
D46*
%TO.C,C2*%
X70510400Y-166700200D03*
X70510400Y-169825200D03*
%TD*%
D18*
%TO.C,J2*%
X50139600Y-151739600D03*
D19*
X50139600Y-154279600D03*
X50139600Y-156819600D03*
X50139600Y-159359600D03*
X50139600Y-161899600D03*
X50139600Y-164439600D03*
%TD*%
D18*
%TO.C,J11*%
X111252000Y-156159200D03*
D19*
X111252000Y-153619200D03*
%TD*%
D12*
%TO.C,TP1*%
X95500000Y-171500000D03*
%TD*%
%TO.C,J14*%
X90500000Y-126034800D03*
%TD*%
D34*
%TO.C,C6*%
X91744800Y-147269200D03*
X94869800Y-147269200D03*
%TD*%
D12*
%TO.C,J33*%
X62992000Y-124460000D03*
%TD*%
D35*
%TO.C,Q1*%
X56388000Y-117983000D03*
X56388000Y-119883000D03*
X58263000Y-118933000D03*
%TD*%
D23*
%TO.C,SW4*%
X104496800Y-123226000D03*
X110996800Y-123226000D03*
X104496800Y-127726000D03*
X110996800Y-127726000D03*
%TD*%
M02*
