%TF.GenerationSoftware,KiCad,Pcbnew,8.0.5*%
%TF.CreationDate,2024-10-28T11:51:33+01:00*%
%TF.ProjectId,Scent_Diffuser,5363656e-745f-4446-9966-66757365722e,rev?*%
%TF.SameCoordinates,Original*%
%TF.FileFunction,Copper,L2,Bot*%
%TF.FilePolarity,Positive*%
%FSLAX46Y46*%
G04 Gerber Fmt 4.6, Leading zero omitted, Abs format (unit mm)*
G04 Created by KiCad (PCBNEW 8.0.5) date 2024-10-28 11:51:33*
%MOMM*%
%LPD*%
G01*
G04 APERTURE LIST*
G04 Aperture macros list*
%AMRoundRect*
0 Rectangle with rounded corners*
0 $1 Rounding radius*
0 $2 $3 $4 $5 $6 $7 $8 $9 X,Y pos of 4 corners*
0 Add a 4 corners polygon primitive as box body*
4,1,4,$2,$3,$4,$5,$6,$7,$8,$9,$2,$3,0*
0 Add four circle primitives for the rounded corners*
1,1,$1+$1,$2,$3*
1,1,$1+$1,$4,$5*
1,1,$1+$1,$6,$7*
1,1,$1+$1,$8,$9*
0 Add four rect primitives between the rounded corners*
20,1,$1+$1,$2,$3,$4,$5,0*
20,1,$1+$1,$4,$5,$6,$7,0*
20,1,$1+$1,$6,$7,$8,$9,0*
20,1,$1+$1,$8,$9,$2,$3,0*%
G04 Aperture macros list end*
%TA.AperFunction,Conductor*%
%ADD10C,0.350000*%
%TD*%
%TA.AperFunction,Conductor*%
%ADD11C,0.500000*%
%TD*%
%TA.AperFunction,Conductor*%
%ADD12C,1.500000*%
%TD*%
%TA.AperFunction,Conductor*%
%ADD13C,2.000000*%
%TD*%
%TA.AperFunction,Conductor*%
%ADD14C,1.000000*%
%TD*%
%TA.AperFunction,Conductor*%
%ADD15C,4.000000*%
%TD*%
%TA.AperFunction,Conductor*%
%ADD16C,0.200000*%
%TD*%
%TA.AperFunction,ComponentPad*%
%ADD17R,1.700000X1.700000*%
%TD*%
%TA.AperFunction,ComponentPad*%
%ADD18O,1.700000X1.700000*%
%TD*%
%TA.AperFunction,ComponentPad*%
%ADD19R,2.000000X2.000000*%
%TD*%
%TA.AperFunction,ComponentPad*%
%ADD20C,2.000000*%
%TD*%
%TA.AperFunction,ComponentPad*%
%ADD21O,1.200000X1.900000*%
%TD*%
%TA.AperFunction,ComponentPad*%
%ADD22C,1.450000*%
%TD*%
%TA.AperFunction,ComponentPad*%
%ADD23RoundRect,0.250000X1.050000X0.550000X-1.050000X0.550000X-1.050000X-0.550000X1.050000X-0.550000X0*%
%TD*%
%TA.AperFunction,ComponentPad*%
%ADD24O,2.600000X1.600000*%
%TD*%
%TA.AperFunction,ViaPad*%
%ADD25C,0.600000*%
%TD*%
%TA.AperFunction,ViaPad*%
%ADD26C,1.000000*%
%TD*%
G04 APERTURE END LIST*
D10*
%TO.N,OE*%
X63347600Y-135585200D02*
X63347600Y-130302000D01*
D11*
%TO.N,Net-(J9-Pin_1)*%
X103700000Y-130700000D02*
X102200000Y-129300000D01*
D12*
%TO.N,GND*%
X110363000Y-132588000D02*
X110998000Y-127762000D01*
D11*
%TO.N,Net-(J12-Pin_1)*%
X101500000Y-118300000D02*
X103450000Y-120400000D01*
%TO.N,Net-(J8-Pin_1)*%
X98600000Y-127800000D02*
X100800000Y-130000000D01*
D13*
%TO.N,GND*%
X90220800Y-168656000D02*
X98272600Y-145796000D01*
D11*
%TO.N,BOOST_DAC_1*%
X89400000Y-127600000D02*
X90400000Y-126200000D01*
D12*
%TO.N,+3V3*%
X62128400Y-154355800D02*
X64566800Y-151866600D01*
D14*
%TO.N,GND*%
X46532800Y-129641600D02*
X53340000Y-126873000D01*
D15*
X66916300Y-158775400D02*
X77762100Y-158775400D01*
X77762100Y-162585400D01*
X66916300Y-162585400D01*
X66916300Y-158775400D01*
D12*
%TO.N,+3V3*%
X87000000Y-143750000D02*
X94982800Y-141748000D01*
X91089000Y-133652250D02*
X91111000Y-129447750D01*
D11*
%TO.N,OLED_DATA*%
X93980000Y-113538000D02*
X87020400Y-108204000D01*
D12*
%TO.N,Net-(J12-Pin_1)*%
X111048800Y-123190000D02*
X104394000Y-123190000D01*
%TO.N,+5V*%
X50190400Y-159359600D02*
X62445900Y-165874700D01*
D14*
%TO.N,GND*%
X76454000Y-165100000D02*
X77978000Y-163322000D01*
D11*
%TO.N,Net-(J12-Pin_1)*%
X103450000Y-120400000D02*
X104394000Y-123190000D01*
D14*
%TO.N,GND*%
X47218600Y-155092400D02*
X46532800Y-147701000D01*
%TO.N,SDA*%
X57175400Y-121081800D02*
X53136800Y-121742200D01*
D11*
%TO.N,Net-(J9-Pin_1)*%
X102200000Y-126200000D02*
X102200000Y-129300000D01*
D14*
%TO.N,GND*%
X47929800Y-157022800D02*
X47904400Y-164566600D01*
D12*
X111353600Y-156159200D02*
X107645200Y-156159200D01*
%TO.N,+3V3*%
X58293000Y-138303000D02*
X84455000Y-143891000D01*
D13*
%TO.N,GND*%
X91440000Y-174853600D02*
X90220800Y-168656000D01*
D11*
%TO.N,Net-(J9-Pin_1)*%
X103700000Y-133800000D02*
X103700000Y-130700000D01*
D14*
%TO.N,GND*%
X77978000Y-163322000D02*
X75082400Y-160985200D01*
D11*
%TO.N,BOOST_DAC_1*%
X87100000Y-133550000D02*
X89399992Y-132549983D01*
D14*
%TO.N,SDA*%
X66776600Y-108153200D02*
X62484000Y-109931200D01*
D11*
%TO.N,Net-(J12-Pin_1)*%
X98250000Y-113050000D02*
X101499956Y-118300028D01*
D12*
%TO.N,+3V3*%
X100203000Y-143891000D02*
X104648000Y-153543000D01*
D11*
%TO.N,Net-(J9-Pin_1)*%
X102500000Y-134700000D02*
X102500000Y-138600000D01*
D14*
%TO.N,GND*%
X42672000Y-145618200D02*
X46507400Y-153162000D01*
D12*
X113919000Y-135255000D02*
X107315000Y-135255000D01*
%TO.N,+3V3*%
X58293000Y-124968000D02*
X58293000Y-138303000D01*
X91111000Y-129447750D02*
X94150000Y-128750000D01*
D11*
%TO.N,Net-(J8-Pin_1)*%
X100800000Y-130000000D02*
X100800000Y-136000000D01*
D12*
%TO.N,+3V3*%
X91111000Y-142291450D02*
X91089000Y-133008550D01*
X50419000Y-140589000D02*
X84455000Y-143891000D01*
D14*
%TO.N,GND*%
X46507400Y-153162000D02*
X47929800Y-157022800D01*
X75311000Y-168579800D02*
X76454000Y-165100000D01*
D11*
%TO.N,Net-(J9-Pin_1)*%
X102200000Y-126200000D02*
X98599998Y-124100025D01*
D12*
%TO.N,GND*%
X113792000Y-142748000D02*
X107442000Y-142748000D01*
D11*
%TO.N,OLED_CS*%
X87000000Y-125850000D02*
X89499982Y-123699980D01*
D14*
%TO.N,GND*%
X54254400Y-170180000D02*
X47904400Y-164566600D01*
D12*
%TO.N,+3V3*%
X104648000Y-153543000D02*
X107949999Y-153670023D01*
D14*
%TO.N,SDA*%
X62484000Y-109931200D02*
X57175400Y-121081800D01*
D16*
%TO.N,GND*%
X94792800Y-148640800D02*
X94996000Y-148285200D01*
X85699600Y-172974000D01*
X79451200Y-172872400D01*
X76454000Y-165100000D01*
X76708000Y-156870400D01*
X65201800Y-158318200D01*
X65557400Y-155473400D01*
X67538600Y-154406600D01*
X80467200Y-147878800D01*
X95148400Y-147878800D01*
X94792800Y-148640800D01*
%TA.AperFunction,Conductor*%
G36*
X94792800Y-148640800D02*
G01*
X94996000Y-148285200D01*
X85699600Y-172974000D01*
X79451200Y-172872400D01*
X76454000Y-165100000D01*
X76708000Y-156870400D01*
X65201800Y-158318200D01*
X65557400Y-155473400D01*
X67538600Y-154406600D01*
X80467200Y-147878800D01*
X95148400Y-147878800D01*
X94792800Y-148640800D01*
G37*
%TD.AperFunction*%
D12*
X104400000Y-136495000D02*
X107315000Y-135255000D01*
D11*
%TO.N,Net-(J9-Pin_1)*%
X102500000Y-134700000D02*
X103700000Y-133800000D01*
D16*
%TO.N,GND*%
X84480400Y-139700000D02*
X83464400Y-139039600D01*
D11*
%TO.N,Net-(U1-A8{slash}IO15)*%
X53822600Y-137566400D02*
X56819794Y-138430022D01*
D14*
%TO.N,GND*%
X50342800Y-164592000D02*
X60706000Y-171958000D01*
D13*
%TO.N,+3V3*%
X111252000Y-153670000D02*
X107315000Y-153670000D01*
D12*
%TO.N,GND*%
X104600000Y-140505000D02*
X104400000Y-136500000D01*
X114109500Y-150266400D02*
X107632500Y-150266400D01*
%TO.N,+3V3*%
X100203000Y-143891000D02*
X94982800Y-141748000D01*
D14*
%TO.N,Net-(J15-Pin_1)*%
X87150000Y-121100000D02*
X90400000Y-121450000D01*
%TO.N,GND*%
X46532800Y-147701000D02*
X46532800Y-129641600D01*
D11*
%TO.N,BOOST_DAC_1*%
X89400000Y-132550000D02*
X89400000Y-127600000D01*
D12*
%TO.N,+5V*%
X67513200Y-175895000D02*
X69113400Y-175818800D01*
D11*
%TO.N,OLED_DC*%
X87020400Y-113385600D02*
X94030757Y-118668858D01*
D16*
%TO.N,GND*%
X84556600Y-120091200D02*
X84531200Y-140766800D01*
X69367400Y-138531600D01*
X69392800Y-120065800D01*
X84556600Y-120091200D01*
%TA.AperFunction,Conductor*%
G36*
X84556600Y-120091200D02*
G01*
X84531200Y-140766800D01*
X69367400Y-138531600D01*
X69392800Y-120065800D01*
X84556600Y-120091200D01*
G37*
%TD.AperFunction*%
D12*
%TO.N,Net-(J8-Pin_1)*%
X113893600Y-138226800D02*
X107238800Y-138226800D01*
%TO.N,GND*%
X107442000Y-142748000D02*
X104600000Y-140500000D01*
D14*
X60706000Y-171958000D02*
X54254400Y-170180000D01*
D12*
X110998000Y-127762000D02*
X104521000Y-127762000D01*
X107315000Y-135255000D02*
X110363000Y-132588000D01*
%TO.N,+5V*%
X62445900Y-165874700D02*
X67513192Y-166903442D01*
D11*
%TO.N,OLED_CLK*%
X86868000Y-110744000D02*
X94030800Y-116078000D01*
%TO.N,Net-(U1-IO4{slash}A5)*%
X83108800Y-141757400D02*
X78308200Y-140843000D01*
D12*
%TO.N,+5V*%
X67513200Y-166903400D02*
X67513132Y-175894999D01*
%TO.N,+3V3*%
X50139600Y-151739600D02*
X67691000Y-151765000D01*
%TO.N,Net-(J9-Pin_1)*%
X113893600Y-145643600D02*
X107188000Y-145669000D01*
D11*
%TO.N,OLED_CS*%
X89500000Y-123700000D02*
X94050000Y-123700000D01*
D12*
%TO.N,+3V3*%
X67691000Y-151765000D02*
X84455000Y-143891000D01*
D14*
X84455000Y-143891000D02*
X87000000Y-143750000D01*
%TD*%
D17*
%TO.P,J5,1,Pin_1*%
%TO.N,Net-(J1-D-)*%
X73761600Y-172161200D03*
D18*
%TO.P,J5,2,Pin_2*%
%TO.N,Net-(J1-D+)*%
X76301600Y-172161200D03*
%TD*%
D19*
%TO.P,TP2,1,1*%
%TO.N,+5V*%
X60700000Y-136000000D03*
%TD*%
%TO.P,J15,1,Pin_1*%
%TO.N,Net-(J15-Pin_1)*%
X90373200Y-121412000D03*
%TD*%
D20*
%TO.P,SW2,1,1*%
%TO.N,Net-(J8-Pin_1)*%
X107316200Y-138262800D03*
%TO.P,SW2,2,2*%
X113816200Y-138262800D03*
%TO.P,SW2,3,K*%
%TO.N,GND*%
X107316200Y-142762800D03*
%TO.P,SW2,4,A*%
X113816200Y-142762800D03*
%TD*%
%TO.P,SW1,1,1*%
%TO.N,Net-(J9-Pin_1)*%
X107317400Y-145791800D03*
%TO.P,SW1,2,2*%
X113817400Y-145791800D03*
%TO.P,SW1,3,K*%
%TO.N,GND*%
X107317400Y-150291800D03*
%TO.P,SW1,4,A*%
X113817400Y-150291800D03*
%TD*%
D19*
%TO.P,J13,1,Pin_1*%
%TO.N,Net-(J13-Pin_1)*%
X98500000Y-120600000D03*
%TD*%
D17*
%TO.P,J3,1,Pin_1*%
%TO.N,OLED_DATA*%
X94081600Y-113588800D03*
D18*
%TO.P,J3,2,Pin_2*%
%TO.N,OLED_CLK*%
X94081600Y-116128800D03*
%TO.P,J3,3,Pin_3*%
%TO.N,OLED_DC*%
X94081600Y-118668800D03*
%TO.P,J3,4,Pin_4*%
%TO.N,OLED_RESET*%
X94081600Y-121208800D03*
%TO.P,J3,5,Pin_5*%
%TO.N,OLED_CS*%
X94081600Y-123748800D03*
%TO.P,J3,6,Pin_6*%
%TO.N,unconnected-(J3-Pin_6-Pad6)*%
X94081600Y-126288800D03*
%TO.P,J3,7,Pin_7*%
%TO.N,+3V3*%
X94081600Y-128828800D03*
%TO.P,J3,8,Pin_8*%
%TO.N,GND*%
X94081600Y-131368800D03*
%TD*%
D21*
%TO.P,J1,6,Shield*%
%TO.N,Net-(J1-Shield)*%
X73250000Y-178562000D03*
D22*
X74250000Y-175862000D03*
X79250000Y-175862000D03*
D21*
X80250000Y-178562000D03*
%TD*%
D19*
%TO.P,J12,1,Pin_1*%
%TO.N,Net-(J12-Pin_1)*%
X98171000Y-113030000D03*
%TD*%
D17*
%TO.P,J6,1,Pin_1*%
%TO.N,Net-(J6-Pin_1)*%
X53253000Y-119263000D03*
D18*
%TO.P,J6,2,Pin_2*%
%TO.N,SDA*%
X53253000Y-121803000D03*
%TO.P,J6,3,Pin_3*%
%TO.N,SCL*%
X53253000Y-124343000D03*
%TO.P,J6,4,Pin_4*%
%TO.N,GND*%
X53253000Y-126883000D03*
%TD*%
D19*
%TO.P,J32,1,Pin_1*%
%TO.N,Net-(J32-Pin_1)*%
X63119000Y-116713000D03*
%TD*%
D17*
%TO.P,J4,1,Pin_1*%
%TO.N,Net-(D1-K)*%
X63626600Y-168930000D03*
D18*
%TO.P,J4,2,Pin_2*%
%TO.N,GND*%
X63626600Y-171470000D03*
%TD*%
D20*
%TO.P,SW3,1,1*%
%TO.N,Net-(J13-Pin_1)*%
X107317400Y-130729600D03*
%TO.P,SW3,2,2*%
X113817400Y-130729600D03*
%TO.P,SW3,3,K*%
%TO.N,GND*%
X107317400Y-135229600D03*
%TO.P,SW3,4,A*%
X113817400Y-135229600D03*
%TD*%
D17*
%TO.P,J7,1,Pin_1*%
%TO.N,Net-(J7-Pin_1)*%
X42672000Y-138049000D03*
D18*
%TO.P,J7,2,Pin_2*%
%TO.N,SDA*%
X42672000Y-140589000D03*
%TO.P,J7,3,Pin_3*%
%TO.N,SCL*%
X42672000Y-143129000D03*
%TO.P,J7,4,Pin_4*%
%TO.N,GND*%
X42672000Y-145669000D03*
%TD*%
D19*
%TO.P,J8,1,Pin_1*%
%TO.N,Net-(J8-Pin_1)*%
X98500000Y-127800000D03*
%TD*%
D17*
%TO.P,J10,1,Pin_1*%
%TO.N,GND*%
X107594400Y-156164200D03*
D18*
%TO.P,J10,2,Pin_2*%
%TO.N,+3V3*%
X107594400Y-153624200D03*
%TD*%
D23*
%TO.P,U1,1,~{RESET}*%
%TO.N,unconnected-(U1-~{RESET}-Pad1)*%
X86752500Y-146300000D03*
D24*
%TO.P,U1,2,3V3*%
%TO.N,+3V3*%
X86752500Y-143760000D03*
%TO.P,U1,3,NC*%
%TO.N,unconnected-(U1-NC-Pad3)*%
X86752500Y-141220000D03*
%TO.P,U1,4,GND*%
%TO.N,GND*%
X86752500Y-138680000D03*
%TO.P,U1,5,DAC2/A0*%
%TO.N,BOOST_DAC_2*%
X86752500Y-136140000D03*
%TO.P,U1,6,DAC1/A1*%
%TO.N,BOOST_DAC_1*%
X86752500Y-133600000D03*
%TO.P,U1,7,I34/A2*%
%TO.N,SW1*%
X86752500Y-131060000D03*
%TO.P,U1,8,I39/A3*%
%TO.N,SW2*%
X86752500Y-128520000D03*
%TO.P,U1,9,IO36/A4*%
%TO.N,OLED_CS*%
X86752500Y-125980000D03*
%TO.P,U1,10,IO4/A5*%
%TO.N,Net-(U1-IO4{slash}A5)*%
X86752500Y-123440000D03*
%TO.P,U1,11,SCK/IO5*%
%TO.N,Net-(J15-Pin_1)*%
X86752500Y-120900000D03*
%TO.P,U1,12,MOSI/IO18*%
%TO.N,SW3*%
X86752500Y-118360000D03*
%TO.P,U1,13,MISO/IO19*%
%TO.N,SW4*%
X86752500Y-115820000D03*
%TO.P,U1,14,RX/IO16*%
%TO.N,OLED_DC*%
X86752500Y-113280000D03*
%TO.P,U1,15,TX/IO17*%
%TO.N,OLED_CLK*%
X86752500Y-110740000D03*
%TO.P,U1,16,IO21*%
%TO.N,OLED_DATA*%
X86752500Y-108200000D03*
%TO.P,U1,17,SDA/IO23*%
%TO.N,SDA*%
X67032500Y-108200000D03*
%TO.P,U1,18,SCL/IO22*%
%TO.N,SCL*%
X67032500Y-110740000D03*
%TO.P,U1,19,A6/IO14*%
%TO.N,Net-(U1-A6{slash}IO14)*%
X67032500Y-113280000D03*
%TO.P,U1,20,A7/IO32*%
%TO.N,Net-(J32-Pin_1)*%
X67032500Y-115820000D03*
%TO.P,U1,21,A8/IO15*%
%TO.N,Net-(U1-A8{slash}IO15)*%
X67032500Y-118360000D03*
%TO.P,U1,22,A9/IO33*%
%TO.N,Net-(J33-Pin_1)*%
X67032500Y-120900000D03*
%TO.P,U1,23,A10/IO27*%
%TO.N,OLED_RESET*%
X67032500Y-123440000D03*
%TO.P,U1,24,A11/IO12*%
%TO.N,OE*%
X67032500Y-125980000D03*
%TO.P,U1,25,A12/IO13*%
%TO.N,Net-(U1-A12{slash}IO13)*%
X67032500Y-128520000D03*
%TO.P,U1,26,USB*%
%TO.N,+5V*%
X67032500Y-131060000D03*
%TO.P,U1,27,EN*%
%TO.N,unconnected-(U1-EN-Pad27)*%
X67032500Y-133600000D03*
%TO.P,U1,28,VBAT*%
%TO.N,BAT_V*%
X67032500Y-136140000D03*
%TD*%
D17*
%TO.P,J2,1,Pin_1*%
%TO.N,+3V3*%
X50139600Y-151739600D03*
D18*
%TO.P,J2,2,Pin_2*%
%TO.N,SDA*%
X50139600Y-154279600D03*
%TO.P,J2,3,Pin_3*%
%TO.N,SCL*%
X50139600Y-156819600D03*
%TO.P,J2,4,Pin_4*%
%TO.N,+5V*%
X50139600Y-159359600D03*
%TO.P,J2,5,Pin_5*%
%TO.N,Net-(J2-Pin_5)*%
X50139600Y-161899600D03*
%TO.P,J2,6,Pin_6*%
%TO.N,GND*%
X50139600Y-164439600D03*
%TD*%
D17*
%TO.P,J11,1,Pin_1*%
%TO.N,GND*%
X111252000Y-156159200D03*
D18*
%TO.P,J11,2,Pin_2*%
%TO.N,+3V3*%
X111252000Y-153619200D03*
%TD*%
D19*
%TO.P,TP1,1,1*%
%TO.N,GND*%
X95500000Y-171500000D03*
%TD*%
%TO.P,J14,1,Pin_1*%
%TO.N,BOOST_DAC_1*%
X90500000Y-126034800D03*
%TD*%
%TO.P,J33,1,Pin_1*%
%TO.N,Net-(J33-Pin_1)*%
X62992000Y-124460000D03*
%TD*%
%TO.P,J9,1,Pin_1*%
%TO.N,Net-(J9-Pin_1)*%
X98500000Y-124100000D03*
%TD*%
D20*
%TO.P,SW4,1,1*%
%TO.N,Net-(J12-Pin_1)*%
X104496800Y-123226000D03*
%TO.P,SW4,2,2*%
X110996800Y-123226000D03*
%TO.P,SW4,3,K*%
%TO.N,GND*%
X104496800Y-127726000D03*
%TO.P,SW4,4,A*%
X110996800Y-127726000D03*
%TD*%
D25*
%TO.N,GND*%
X78578247Y-163682148D03*
X77978000Y-163322000D03*
X98044000Y-145542000D03*
D26*
X91440000Y-174752000D03*
D25*
X75311000Y-168656000D03*
X84429600Y-139649200D03*
X60706000Y-171958000D03*
%TO.N,+3V3*%
X63627000Y-153162000D03*
X62128400Y-154355800D03*
X89560400Y-143662400D03*
X64566800Y-151866600D03*
X58293000Y-124968000D03*
X50292000Y-140589000D03*
%TO.N,+5V*%
X69189600Y-175793400D03*
X67437000Y-175818800D03*
%TO.N,OE*%
X63347600Y-135585200D03*
X63347600Y-130302000D03*
%TO.N,Net-(U1-IO4{slash}A5)*%
X83108800Y-141757400D03*
X78308200Y-140843000D03*
%TO.N,Net-(U1-A8{slash}IO15)*%
X56692800Y-138379200D03*
X53771800Y-137566400D03*
%TO.N,Net-(J8-Pin_1)*%
X100800000Y-136000000D03*
%TO.N,Net-(J9-Pin_1)*%
X102500000Y-138600000D03*
%TD*%
M02*
